<?xml version="1.0" encoding="utf-8"?>
<!-- Generator: Adobe Illustrator 19.0.0, SVG Export Plug-In . SVG Version: 6.00 Build 0)  -->
<svg version="1.1" xmlns="http://www.w3.org/2000/svg" xmlns:xlink="http://www.w3.org/1999/xlink" x="0px" y="0px"
	 viewBox="0 0 2000 2000" style="enable-background:new 0 0 2000 2000;" xml:space="preserve">
<style type="text/css">
	.st0{display:none;}
	.st1{fill:#FFFFFF;}
</style>
<g id="Layer_1" class="st0">
	
		<image style="display:inline;overflow:visible;" width="626" height="417" id="XMLID_2_" xlink:href="../../../../Downloads/silhouette-two-brothers-enjoying-freedom_21730-11373 (1).jpg"  transform="matrix(3.1949 0 0 3.5875 0 357)">
	</image>
</g>
<g id="Layer_3" class="st0">
	
		<image style="display:inline;overflow:visible;" width="880" height="821" id="XMLID_13_" xlink:href="23E4C3C1.jpg"  transform="matrix(1 0 0 1 424.9832 350)">
	</image>
</g>
<g id="Layer_2">
	<path id="XMLID_10_" class="st1" d="M912.7,551.9c-3-1.8-10.3,5.1-10.3,5.1s3-6-5-5s-26,22-32,28s-8,0-8,0l-3.3-8c0,0-6.7-6-7.3,0
		c-0.7,6,6.7,14.3,7.7,15.7c1,1.3,1,9,6,23.3c5,14.3-15.3,105.3-15.3,105.3l-54.7,39L760,758c-69,40.7-100.7-1.7-100.7-1.7l-37,1
		l-18-11.7l-1.7,10c-8-7.7-42.3-12.3-42.3-12.3c-9-7.7-27.3-11.3-27.3-11.3l-66.7-5c0,0-1.4-2.5-4.7-5.8c-0.4,3.9-1.5,7.5-3.5,11
		c-1.4,1.8-2.8,3.6-4.2,5.5c-1.7,1.7-3.5,3.1-5.5,4.3c27,9.4,93.7,26.1,93.7,26.1c18,22,80,33,80,33l13,26l-39.1,145v19l6.7,5
		c-18.4,115-3.6,163-6.7,174s-6.7,100-6.7,100l6.7,89l-6.7,13.1l13.5,81c0,0,17.4-3.7,37.4-5.1c20-1.3-2.3-32.7-2.3-32.7
		c6.7-5,5-18.3,5-18.3l-23.3-54.7c13-45.7,15.7-87.3,15.7-87.3c10.3-24.3,25-144.7,25-144.7s7.7-11.3,6.3-0.7
		c-1.3,10.7,10,132,10,132c-3.7,46,6.3,109.3,6.3,109.3l-5.7,3.7l-0.7,11.7l-6,3.7c0,0,3.7,3.3-11,28c-14.7,24.7,8.3,27,8.3,27
		c-11,5.3-8.3,21.7-8.3,21.7l52-3.7l-4.7-11.7l8.3-53.3l-5.7-12.7l19-191.3c0,0,0,0,6.7-16.3s-0.7-155.3-0.7-155.3l13.3-2.3
		c6-12.7,5.7-25,5.7-25c14-21.3,32-149,32-149s9.7-6,17-16c7.3-10,19.3-8.3,19.3-8.3l-0.7-27.3c44.7-28,55.7-44.7,55.7-44.7
		l-0.3-18.3c-33-29,6-55.3,6-55.3s0-27.7,0.7-44c0.7-16.3,26-39,26-39l1-6l6.3-6C916.3,561,915.7,553.7,912.7,551.9z"/>
	<path id="XMLID_1_" class="st1" d="M415.8,735.6l3.1,0.5c0,0,6.7,0.9,10.3,1.1c11.4,0.8,19.2,5.2,19.2,5.2s9.4-5.4,13.3-20.7
		c0,0-15-20.3-25.5-15.8s-0.8,4.9-0.8,4.9l4.6,0.3l-0.3,2c0,0-38.5-6.4-41.5-2.6s-2.3,4.3-2.3,4.3s0.8,3.6,2.5,3.6s-5.6,1.1-6.8,2.3
		s-1.9,4.6,0,5.5s3.5,1.6,3.5,1.6s-4.1,6-0.4,7.1S415.8,735.6,415.8,735.6"/>
	<path id="XMLID_5_" class="st1" d="M663,755.2c0,0,34.8,34.8,81.5,5c0,0,29-49.3,6-97.3c0,0-27-30.8-45-27.8l-2.3-8
		c0,0-48.3,16-43,64L663,755.2z"/>
	<path id="XMLID_6_" class="st1" d="M1034,1434.5l8.5-8l2.5-18c0,0-2.3-11.1,2.4-21.5s0-12.3,0-12.3s-26.7-81.8-27.7-115.8
		s-17.3-97.3-19.7-127.7c-2.3-30.3-5-89.3-5-89.3s-8.3-119.3-9.3-148.7l-29-30v-15c0,0-29.3-33.7-32.3-46.3c0,0-30-35.7-41-82.7
		l-5.3-8.5c-0.5,0.7-28.8-25.3-0.4-45.7c1.5-1.1,3.2-2.1,5-3.2h3.4h8.9l2.3,6.5c0,0-0.8,5.6,2.1,5.5s2.8-5.3,2.8-5.3
		s5.3-7.6,6.5-5.1s-1.6,18.5-3.6,21.3s-2.9,18.6-2.9,18.6l10.4,25.4c0,0,28.3,34,31.1,53.4l38.3,33.4l4.7-0.7l11.5,10.7
		c0,0,12.2,11.8,32.8,12.2c20.7,0.3,69.2-7.2,69.2-7.2l10-14.8h4.5l17.7-14.3l30.8-37c0,0,2.3-15.7,12.2-24
		c9.8-8.3,41.8-46.5,41.8-46.5l7-12.2c0,0-0.7-6-2.7-10.3s-4.7-30.3-4.7-30.3l-2.8-5.5c0,0,5.7-4.4,9.4,12c0,0,4.2,5.4,3.6,8.5
		s7.1,0.3,7.1,0.3s1.3-0.3,1.9-1.7s1.5-37.9,1.5-37.9s0.6-5.6,3.2-5s1.7,5.7,1.7,5.7s-0.1,12.6,0.1,14.4s-0.4,12.6-0.4,12.6l3-2.5
		l7.8-29c0,0,1.9-2.3,3.6-1s1.5,2.7,1.5,2.7l-6,24.3l-0.5,5.2c0,0,0.4,1.8,1.9,1.8s3.4-2.1,3.4-2.1l9.1-17.7c0,0,2.6-2.3,3.3-1.8
		s0.8,3.3,0.8,3.3l-6.5,15c0,0-2.4,9.2-2.9,10.3s-0.1,3.3-0.1,3.3s0.6,1.4,1.8,1.2s3.9-2.3,3.9-2.3l5.7-6.3c0,0,3.5-2.8,4.1-1.9
		s1,2.8,1,2.8s-0.1,0.6-0.4,1.2c-0.2,0.4-3.6,6.4-8.1,10.2c-1.2,1-2.5,1.9-3.9,2.4c-0.7,0.3,0.7-0.1,0,0c0,0-2,2.1-2.8,4.2
		c-2.7,6.8-9.9,21.9-16.3,28.4c-8.3,8.4-26.2,52.6-61.2,84.9l-24.3,44.3l2.8,17.8c0,0-33,31-36.5,79l1.8,75.3l1.5,29.8l16.5,109
		l0.5,117.5c0,0,7.5,42.3-2.8,58c0,0,3.5,22.8-5.8,40.3l-1.5,29.3l10.3,21.8c0,0,1.3,4.5,0,9s-0.5,19-0.5,19l7.8,7.3l5.3,1.5
		l-0.3,5.5l-54.8-1.3c0,0-9.8-4-0.8-21c0,0,4.8-4.8-2-12s2.8-20,2.8-20l3-2.3l-1.3-46.5c0,0-11.5-61.3-4.8-73.5
		c0,0-8.8-90.8-17.3-97.3s-9-0.3-9-0.3l-2.3,104.3c0,0,8.8,82.3,3,95.3c0,0,5,17.3,3.8,22.5c0,0,15.3,11,7.3,39.8l2,5.3l1.8,3.8
		l-5.8,3.3l-49.5-4.5L1034,1434.5z"/>
	<path id="XMLID_8_" class="st1" d="M1031.7,834c0,0-14.5-21-13.2-29c0,0-5.6-18.3,0.4-30.7c6-12.3,10.3-43.3,46.9-50
		c36.7-6.7,45,77.2,45,77.2l-13.2,24.2C1097.7,825.7,1074.3,835,1031.7,834z"/>
	<path id="XMLID_7_" class="st1" d="M1126.7,943.2c0,0,16.6,129,16.2,132.3c-0.4,3.3-14.2,8.3-14.2,8.3l-139.3,3.7
		c0,0-7.5-67.7-5-80.3c2.5-12.6,3.9-64,3.9-64H1126.7z"/>
	<path id="XMLID_11_" class="st1" d="M184.1,1412.6"/>
</g>
</svg>
