<?xml version="1.0" encoding="utf-8"?>
<!-- Generator: Adobe Illustrator 19.0.0, SVG Export Plug-In . SVG Version: 6.00 Build 0)  -->
<svg version="1.1" id="Layer_1" xmlns="http://www.w3.org/2000/svg" xmlns:xlink="http://www.w3.org/1999/xlink" x="0px" y="0px"
	 viewBox="0 0 409.8 381" style="enable-background:new 0 0 409.8 381;" xml:space="preserve">
<style type="text/css">
	.st0{fill:#FFFFFF;}
	.st1{fill:#77BDA2;}
	.st2{fill:#78BA90;}
	.st3{fill:#F58E44;}
	.st4{fill:#4CB98A;}
	.st5{fill:#F69854;}
	.st6{fill:#E96BA4;}
	.st7{fill:#EC78AC;}
	.st8{fill:#4DAE5D;}
	.st9{fill:#4FB46D;}
	.st10{fill:#16B0DF;}
	.st11{fill:#F06A58;}
	.st12{fill:#E27E6D;}
	.st13{fill:#0DA1CE;}
	.st14{fill:#0895C2;}
	.st15{fill:#14A2D5;}
	.st16{fill:#ED86B2;}
	.st17{fill:#E089B0;}
	.st18{fill:#E7E5DE;}
	.st19{fill:#E2B744;}
	.st20{fill:#D5729F;}
	.st21{fill:#E0D378;}
	.st22{fill:#EF7468;}
	.st23{fill:#D1BD62;}
	.st24{fill:#E28B83;}
	.st25{fill:#74AF72;}
	.st26{fill:#4DBB9A;}
	.st27{fill:#E25641;}
	.st28{fill:#7AB681;}
	.st29{fill:#BFB461;}
	.st30{fill:#E7E7E3;}
	.st31{fill:#43A2CB;}
	.st32{fill:#EDEAE6;}
	.st33{fill:#F7DB73;}
	.st34{fill:#F0CD61;}
	.st35{fill:#E88838;}
	.st36{fill:#D85B8D;}
	.st37{fill:#CBA432;}
	.st38{fill:#D2B74F;}
	.st39{fill:#3EAF79;}
	.st40{fill:#ED8637;}
	.st41{fill:#D2E0D1;}
	.st42{fill:#DD4B35;}
	.st43{fill:#73AA68;}
	.st44{fill:#F48331;}
	.st45{fill:#F8A266;}
	.st46{fill:#F39C5F;}
	.st47{fill:#D2E5CC;}
	.st48{fill:#A6D5A9;}
	.st49{fill:#F7AB77;}
	.st50{fill:#F6B487;}
	.st51{fill:#EFAE81;}
	.st52{fill:#F8C9AA;}
	.st53{fill:#DF5795;}
	.st54{fill:#D7458A;}
	.st55{fill:#F8F7F6;}
	.st56{fill:#C75941;}
	.st57{fill:#D0634B;}
	.st58{fill:#BC4C2F;}
	.st59{fill:#4BA752;}
	.st60{fill:#EA5D45;}
	.st61{fill:#5AA559;}
	.st62{fill:#D4765D;}
	.st63{fill:#CD6294;}
	.st64{fill:#DB7BA6;}
	.st65{fill:#C2DCE7;}
	.st66{fill:#CE3928;}
	.st67{fill:#F07E76;}
	.st68{fill:#F5A298;}
	.st69{fill:#EAC8C5;}
	.st70{fill:#119DCE;}
	.st71{fill:#088DB5;}
	.st72{fill:#29AEE3;}
	.st73{fill:#C7AF50;}
	.st74{fill:#B89F3B;}
	.st75{fill:#259CD0;}
	.st76{fill:#E9DF91;}
	.st77{fill:#F4D1DF;}
	.st78{fill:#F4A9CA;}
	.st79{fill:#E2B845;}
	.st80{fill:#D2A241;}
	.st81{fill:#D8AA34;}
	.st82{fill:#F7CAC1;}
	.st83{fill:#FAEF9C;}
	.st84{fill:#6DA45B;}
	.st85{fill:#FAE687;}
	.st86{fill:#E7AB73;}
	.st87{fill:#7CB379;}
	.st88{fill:#7C9C45;}
	.st89{fill:#F6F4EF;}
	.st90{fill:#FCE1CC;}
	.st91{fill:#DFDAA7;}
	.st92{fill:#CB4430;}
	.st93{fill:#49A248;}
	.st94{fill:#E49750;}
	.st95{fill:#C7E2EC;}
	.st96{fill:#95D0EA;}
	.st97{fill:#EDC555;}
	.st98{fill:#EEC857;}
	.st99{fill:#D8A13F;}
	.st100{fill:#CB9B2C;}
	.st101{fill:#FBF4C9;}
	.st102{fill:#E79E60;}
	.st103{fill:#D29738;}
</style>
<g id="XMLID_1_">
	<g id="XMLID_371_">
		<path id="XMLID_2_" class="st0" d="M159.4,47.7c-1.7,6.6-10.3,4.7-14.2,8.6c-9.9,5-16,12.3-18,22.1c-0.2,1.8-0.6,3.5-1.1,5.3
			c-0.9,7.6-3,14.5-12.7,17.4c-5.2,2.6-10.3,5.3-13.4,10c-3.4,3.9-5.9,8.2-7,13c-1.6,6.6-0.3,13.4-1,20c-0.1,1-0.4,1.9-0.7,2.8
			c-0.9,2.1-2.8,3.5-5,4.7c-16.4,8.7-24.6,21-22.6,37.7c-1.1,8.7,7.1,14.7,9,22.6c-2.9,5.7-8.1,10.4-10.1,16.5
			c-3,5.3-3.7,11-3.1,16.8c0.5,4.8,2.5,9.2,5.2,13.4c9.6,16,26.7,23.9,45,30.4c3.6,1.7,6.5,4.2,9.4,6.6c3.8,3.2,7.9,6.2,12.2,8.9
			c2.7,1.6,5.7,2.7,8.8,3.8c2.2,0.8,4.5,1.1,6.8,1.4c2.7,0.5,4.5,1.7,5.4,4.1c0.4,1.2,1.1,1.9,0.3,0.9c0.6-0.1,0.8-0.5,0.8-1.4
			c0.3-1.3,0.7-2.6,1.8-3.4c17.5-12.9,25.4-30.8,33.8-48.4c3.6-2.4,5.7,0.4,8.3,1.8c1.2,0.9,2.3,1.8,3.4,2.8
			c3.1,2.9,7.6,4.8,9.3,8.8c2.7,7,3.2,14.4,6.2,21.3c1.2,2.6,2.4,5.2,2.7,8c-0.9,16.2,0.5,32.5-1.5,50.8c-6.8-5.4-6.7-9.9-6-15.5
			c-1.8,8,2.1,14.1,3.8,20.5c0.7,2.7,2,6.1-1.5,7.6c-3,1.3-4.6-2.2-7-3.2c-18.6-7.8-30.4-21.5-40.1-32.5
			c12.4,16.7,32.5,31.4,52.9,46.5c-3.6-15.7-0.4-31.1-0.8-46.4c-0.2-5.6-2.6-11.8,2.5-17c3.1-1.1,6.3,0,7.7,1.9
			c7.7,10.3,16.7,5.5,25.8,2.2c5.9-1.4,9.7-6.4,16.2-6.8c5.5,1.1,8.9,4.5,11.7,8.4c0.9,1.1-1,2.2,0.1,3.4c1-1.3,2.4-2.2,4.2-2.7
			c21.8-2.1,38.5-12.5,54.8-23.8c8.4-5.9,12.7-13.8,15.3-22.6c1.9-6.5-0.1-13.2,1.8-19.7c3.4-7,12.2-10.4,15.8-17.3
			c10.8-18.4,6.4-35.3-12.9-49.2c-5.7-4.4-13.4-4.6-20.1-6.9c-0.8-0.6-1.3-1.4-1.4-2.3c3-7,9.6-12.4,12.1-19.6
			c0.8-1.7,1.1-3.4,1.1-5.2c0.1-5.1,0.1-10.2-0.1-15.2c-0.2-4.5-2.1-8.6-5.1-12.2c-10.8-13.2-23.8-22.8-44.5-19.8
			c-4.5-1.3-9.8,1.9-14-1.5c-3.5-8.9-1.4-18.9-7.4-27.4c-2.4-4.6-6.9-7.7-11.1-11c-10.6-10.1-24.7-8.4-38.3-8.5
			c-7.4-1.5-12.9,2-18.6,5.1c-2.3,1.1-4.7,1.9-7.4,1.6c-8.2-5.2-15.9-11-25.6-14.3c-1.6-0.6-3-1.7-2.3-3.5"/>
		<path id="XMLID_489_" class="st1" d="M179.1,47.7c10.6,4.3,21.3,8.5,28.6,16.9c0.6,4.2-2.2,5.8-6.6,6.2c-5.3-2.3-7.5-8.4-15.3-8.5
			c4,4.7,11.5,6.1,13.7,11.7c0.2,2-1,3.5-2.5,4.9c-2.8,2-5.4,3.6-9.6,1.7c-11.4-5.4-21.9-11.8-32-18.9c-5.1-3.6-4.4-6,0.9-9.2
			c5-3,11.4-1.6,16.1-4.8C174.7,47.7,176.9,47.7,179.1,47.7z"/>
		<path id="XMLID_488_" class="st2" d="M172.6,47.7c-3.8,6.7-14.5,2.7-18.3,10c10.3,7.6,22.3,14.6,34.8,21.2
			c4.2,2.2,4.6-2.4,7.2-1.3c1.5,0.9,1.8,2.2,1.8,3.6c-0.9,4.1-2.8,7.9-4,11.9c-0.6,1.8-1,3.6-1.7,5.4c-1.6,4.3-4.2,4.8-7.4,1.2
			c-2.8-3.2-5.8-6.3-7.8-10c-5.9-12.4-14.6-21.3-32.3-18.8c-1.4,0.2-2.8-0.4-3.9-1.2c-5.4-6,0.9-10.3,3-15.2
			c3.9-4.4,11-3.4,15.5-6.8C163.8,47.7,168.2,47.7,172.6,47.7z"/>
		<path id="XMLID_487_" class="st3" d="M117.9,296.5c-2.6-1.8-5.3-3.6-7.9-5.4c-19.8-16.4-25.9-36.8-16.9-56.5
			c1.7-2.4,2.9-5.4,6.9-5.8c3.7,2.4,1.3,5.6,1,9.8c5.8-4.9,10.9-8.6,18.7-8.1c7,0.5,13.6,0.9,19.1,5c2.8,3,8.2,5.1,5.5,10.3
			c-3.3,2.9-7.2,2-11.2,1.5c-9.1-1.3-20.8,6.8-21.8,15c-0.7,5.8,9.5,14,18.2,14.7c10.6,0.9,16.6-4.5,18.8-13.8
			c1.6-6.8-4.4-11.4-4.1-17.5c10.6-1.4,12.8,7.1,18.5,11.5c8,21.5-2.7,34.3-29.8,34.8C127.1,292.2,123.7,297.1,117.9,296.5z"/>
		<path id="XMLID_486_" class="st4" d="M354.3,160.1c-1.6,7.5-7,13.2-12.7,18.7c-13.3-2.5-16.5-13.5-24.1-20.9
			c-3.8-5.9-2.7-12.6-4.3-18.8c-0.4-0.9-0.7-1.7-1-2.6c-2.1-7.9-8.9-12.6-16.2-16.7c-3.5-1.9-8.8-2.4-7.9-7.5
			c0.9-5.1,6.1-5.5,10.6-6.4c1.7-0.3,3.4-1.2,5.2-0.3c17.4-4.3,34.6,3.2,46.9,20.6c-7.4,1.8-9.4-4.4-14.1-6.7
			c-3.6-1.8-6.7-8.5-10.9-4.1c-3.8,4,0.4,8.7,6.1,11c1.3,0.5-0.2-0.3,1,0.4c5.5,3.3,7.2,8.6,9.9,13.4c3.2,3.5-0.5,9.6,6.1,11.9
			C352.1,154.2,355,156.3,354.3,160.1z"/>
		<path id="XMLID_485_" class="st5" d="M117.9,296.5c5.7-5,11-8.1,20.7-6.2c13.1,2.6,27.2-14.1,23.4-25.6c-0.8-2.3-0.3-4.9-0.5-7.4
			c4.7-2.8,8,0.7,11.8,1.9c2.7,0.9,5.6,2.5,8,0.4c2.8-2.3,0-4.5-1.1-6.6c-1.1-2.2-2.6-4.4-3.2-6.8c-0.8-4.2-0.7-8.6-4.1-12.2
			c-1.8-2.2-4.1-4.3-4.2-7.3c0.3-2.1,1.1-3.7,4-3.7c10.8,5.7,12.6,14.9,14.2,24.2c2.1-1.2-3.8-6.8,3.3-6.6c4.3,6.8,4,13.6,0.4,20.5
			c-6.6,19.1-14.9,37.3-34.5,50c-1.1,0.7-1,2.7-1.5,4.2c-4.6,1.4-1.7-8.7-8.4-3.9c-2.6,0.5-4.8,0.1-6.6-1.6
			c-2.1-2.7-5.2-3.6-8.9-3.6C125.8,303.6,121.2,300.6,117.9,296.5z"/>
		<path id="XMLID_484_" class="st6" d="M343.3,298.4c-16.5,12.3-33.4,23.8-56.9,23.9c-1.5-0.7-2.9-1.4-4.6-1.5
			c-3.6-2.8-7.2-5.6-10.7-8.4c-4.1-2-5.5-5.3-5.7-9.1c0.4-5.7-3-10.8-3.1-16.4c0-1.9,0.1-4,2.2-4.9c2.7-1.2,3.4,1.3,5,2.4
			c7.1,4.7,14.7,8.9,22.8,11.9c13.4,4.9,28.7-6.5,26.4-18.9c-0.9-4.7-3.9-9.6-0.1-14.4c6.4-0.6,6.8,3.8,7.2,7.1
			c0.9,7.2,3.9,12.8,11.1,17.2C340.8,289.8,343.8,293.6,343.3,298.4z"/>
		<path id="XMLID_483_" class="st7" d="M343.3,298.4c-4.6-5.1-7.7-11-15.5-14.1c-4-1.6-3.9-7.4-4.2-11.6c-0.3-3.8-0.9-7.3-4.4-9.9
			c-3.7-10.6-9.5-19.7-21.9-24.6c-5.7-5.1-10.4,1.2-15.6,1.1c-5.3-3.5-0.6-6.2,1.1-9.1c1.8-1.8,3.8-3.3,6.1-4.5
			c4.3-2.1,8.5-4.6,13.7-4.6c5.7-0.1,11.4-0.3,17.2,0.2c1.2,0.1,2.3,0.4,3.3,0.7c2.5,1.1,5.1,2.1,5.3,5c-5.6,3.6-6.2,6.8-1.8,12.3
			c7.8,9.6,14.9,19.7,20.7,30.4c2.5,4.6,4.2,8.3,10.8,4.4c0.1,0,0.6,0.3,0.8,0.5c0.5,0.4,0.4,1-0.1,1.6
			C357.1,285.4,352.2,292.9,343.3,298.4z"/>
		<path id="XMLID_482_" class="st8" d="M314.7,137.5c4,6.4,1.7,13.9,4.5,20.5c4.4,10.7-2.2,21.5-15.5,24.1
			c-10.2,2-20.4,1.5-28.7-5.2c-3.8-3.1-7.7-5.7-13.4-5.1c-6.5-2.9-3.2-8.9-5.5-13.1c-0.8-2.8-1.4-5.6-1.7-8.5
			c1.5-13.4,5.6-26,17-36.1c5.9-4,11.2-8.9,19.6-8.8c4.3,1.2,8.8-3.5,13.1,0.2c-2.4,0.7-4.7,1.7-7.2,1.9c-4.4,0.5-6.7,2.8-6.9,6.1
			c-0.2,3.5,4.2,2.3,6.4,3.4C305.4,121.9,314.2,127.1,314.7,137.5c-9.8-3-19.3-6.1-30.3-4.5c-6.3,0.9-7.3-2.5-4.2-12
			c-13.1,10.7-15.8,31.5-4.4,40.2c3.3,2.5,6.4,5.1,10.6,6.4c10.9,3.5,21-1.7,23.8-11.3C312,150.1,310.1,143.2,314.7,137.5z"/>
		<path id="XMLID_481_" class="st9" d="M262.3,171.2c6.7-6.1,9.8,0.4,13.4,3.2c10,7.6,24.6,8.8,34.7,2.4c7.5-4.7,9.6-11.2,8.8-18.8
			c8.7,6,12.6,15.7,22.5,20.8c0,0,0.1,0.9,0.1,0.9c-1.6,4.2-6.5,5.4-9.9,8c-3.5,1.9-6.9,3.9-10.3,5.9c-6.6,3.4-13.1,6.9-20.9,7.9
			c-5.8-0.2-11.5,1.8-17.3,0.9C269.9,200.2,258.6,183.3,262.3,171.2z"/>
		<path id="XMLID_480_" class="st10" d="M100,228.1c-1.5,2.2-3,4.3-4.6,6.5c-14-3.1-20.7,1.2-21.3,13c-0.3,6.1-2.8,11.4-11.6,11.7
			c-3.6-3.9-4.3-8.7-5.5-13.4c1-6.5,2-13,3.7-19.4c1.4-6.2,6.1-10.5,10.9-14.8c3.5-7.5,12-8.3,19.4-10.7c7.8-1,15.6-0.9,23.3-0.3
			c6.6,1.7,14.5,1.7,17.1,9c-1.2,2.6-4.2,3.1-6.8,3.9c-2.1,0.5-4.2,0.5-6.4,0.2c-4.5-0.7-8.9-2.7-13.9-1.2c1.6,2.1,4.9,1.1,6.6,2.7
			C112.1,222.7,105.5,225,100,228.1z"/>
		<path id="XMLID_479_" class="st11" d="M291,105.4c-5.8,3.2-11.5,6.5-17.3,9.7c-8.6,0.4-12.5-6.5-19.1-9.2c-0.9-0.5-1.7-1-2.4-1.6
			c-3-2.6-4.5-5.8-5.6-9.3c-3.3-7.8-8.8-14-17.8-17.7c-4.6-1.7-9.3-1-14-0.7c-4.1,0.3-8.3,0.7-10.1-3.3c-1.6-3.8,2.5-5.4,4.9-7.5
			c1.5-1.3,3.7-2.1,4.3-4c5.3-3.2,10.6-6.7,17.8-5c12.9,13,25.5,26.3,43.4,34.7c1.4,0.1,2.7,0.5,4,1c6.2-1.1,3.4-4.9,2.8-7.7
			c-0.6-3-2.8-5.8-0.7-8.9c0.8-0.7,1.6-0.8,2.6-0.2C291.1,84.8,290.6,95.2,291,105.4z"/>
		<path id="XMLID_478_" class="st12" d="M330.3,186.5c3.8-2.3,7.6-4.5,11.5-6.8c7.7,0.6,15,2.1,21,6.6c-10.2,10-9.9,13.9,1.6,21.7
			c4.1,2.9,5.6,6.7,5.6,11.1c-1.8,7.5-0.4,14.3,6.8,19.6c-3.4,6.7-9.4,11.3-16.1,15.5c-1.5,0.1-3.2,0-3.9-1.1
			c-4.4-6.9-10.8-12.7-14.4-20c1.2-6.7-0.3-13.4,0.1-20.1c1.1-7.1-5.2-11.9-7.9-17.7C334.4,191.9,329.9,190.1,330.3,186.5z"/>
		<path id="XMLID_477_" class="st13" d="M62.5,259.3c6.5-4.2,12.8-8.7,7.6-16.6c-1.6-2.5,0.9-3.5,1.8-4.6c4.4-5.2,11.8-6.5,18.3-8.5
			c3.7-1.1,2.9,3.7,5.2,5c-8.6,17.8-1.9,33.5,9,48.7c1.9,2.6,3.7,5.2,5.6,7.8C90.1,284.9,72.4,276.4,62.5,259.3z"/>
		<path id="XMLID_476_" class="st14" d="M190.7,261.1c-1.6-6.9,2.3-14.4-2.7-21c-4.1-2.7-6.3-6.1-5.5-10.7c2-3.5,6.1-2.3,9.3-3.1
			c3.4,0.1,4.7,2.6,6.4,4.5c2.9,3,6.6,4,10.6,2c5.4-2.7,2.9-7.1,2.5-10.9c-0.4-3.8-3.2-5.1-7.4-5.2c-6.2-0.2-12.7,3.7-18.7-0.7
			c9-16.4,23-17.8,40.3-4.3c1.1,1.2,1.9,2.6,2.7,4c3.8,6.5,9.7,12.2,2.8,20.3c-7.1,8.5-15,14.5-27.9,12c-7.9-1.5-8.4,1.7-7.7,7
			c0.5,3.4,4.9,6.7,1,10.4C194.5,263.9,192.6,262.5,190.7,261.1z"/>
		<path id="XMLID_475_" class="st15" d="M196.4,265.4c-1.6-5.9-5.6-11.2-4.3-17.7c0.8-4.2,1.3-5,6.6-3.1c14.2,5,28.8-1.8,33.4-14.3
			c1.1-2.9-0.3-4.9-2-6.8c-2.9-3.3-5.3-6.7-5.1-11c0.5-0.1,1-0.2,1.4-0.4c9.7,7.4,15.5,17.4,23.4,26c-0.1,4,4.9,5.8,5.4,9.5
			c0,0.9-0.2,1.8-0.5,2.6c-2.9,5.3-5.4,10.8-12.3,13.4c-1.1,0-2-0.3-2.8-1c-1.9-5,4.4-9.2,1.6-14.5c-3.9,0-5.8,3.1-8.7,4.5
			c-3.5,1.6-6.6,3.8-10.2,5.3c-4.8,1.9-9.6,2.8-14.6,0.6c-1.2,3.3,1,8-5.2,9.2c-1.6,0.1-3.1-0.3-4.6-0.7
			C197.5,266.4,197,265.9,196.4,265.4z"/>
		<path id="XMLID_474_" class="st16" d="M343.1,233.3c8.8,5.1,11,14.4,17.6,20.8c-0.7,7.4,2.5,15-1.9,22.1c-6.8,5.3-8.8,4.6-13-3.4
			c-6.3-12.2-13.9-23.8-23.6-34.4c-5.7-6.3-4-9.4,6.3-11.4C336.6,223.8,340.2,227.9,343.1,233.3z"/>
		<path id="XMLID_473_" class="st17" d="M61.2,190c-2-20.9,5.7-32.2,28.8-42.5c5.2-0.3,4.7,3.9,6.2,6.2c4.1,6.2,8.8,12,14.1,17.5
			c0.9,1.1,1.6,2.2,2.2,3.5c0.2,0.9,0.2,1.8,0,2.7c-0.7,1.4-1.9,2.1-3.6,2.3c-1.1,0-2.1-0.2-3.1-0.5c-3.5-1.6-6.9-3.3-10.8-4.4
			c-10.9-2.9-17.2-0.6-22.1,8.1c-1.4,2.5-2.3,5.3-4.7,7.3C65.8,192.3,63.3,193.2,61.2,190z"/>
		<path id="XMLID_472_" class="st18" d="M223.4,315c-3.8,2.2-2.6,5.6-2.7,8.5c-0.1,15,0,29.9,0,44.9c0,2.2,0.6,4.3,0.4,6.5
			c-0.2,2.4,7.6,1.4,3.1,4.9c-3,2.3-6.8,0.9-9.8-1.4c-7.5-5.9-15.6-11.3-22.3-17.7c-12.4-11.9-24.9-23.9-33.7-38.4
			c16.3,16.3,31,34.2,55.1,42.9c0.1-9.1-10-18.5-2.3-28.9c1.1,4.5,2.4,9.3,3.6,14.1c0.5,0,1,0,1.5,0c0-15.4,0-30.9,0-46.3
			C223.2,305.5,223.1,310.4,223.4,315z"/>
		<path id="XMLID_471_" class="st19" d="M109.3,173c-9.1-7.1-14.4-16.2-19.3-25.5c0-0.9,0-1.8,0-2.7c1.3-3.1-0.1-6.4,1.1-9.6
			c10.8-18,15-20.1,35.6-18.2c2.8,0.9,4.9,2.3,5,5.1c-2.4,4.6-8.1,4.9-12.4,6.9c-11.6,5.3-15.7,22.7-7,31.2c2.6,2.6,5.6,5,5,8.9
			C115.8,172.6,113.2,173.8,109.3,173z"/>
		<path id="XMLID_470_" class="st20" d="M61.2,190c6.2,2.4,6.6-2.3,7.9-5c7.9-16.1,22.5-18.6,37.9-6.4c-1.8,2.8-5.1,3.2-8.2,4
			c-16,4-18.6,9.8-9.4,20.6c-5.9,2.9-11.8,5.7-17.7,8.6C67.1,204.9,60.1,198.8,61.2,190z"/>
		<path id="XMLID_469_" class="st21" d="M267.1,304c1.3,2.8,2.7,5.6,4,8.4c-5,2.9-9.3,6.7-15.5,7.9c-22.3,3.6-32.4-2.2-38-21.6
			c4.4-4,8.2-6.2,13.9-0.4c5.3,5.3,20.3,5.1,27.3,0.6c1.9-1.2,3.7-1.9,6-1.1C266.7,299.6,268.4,301.3,267.1,304z"/>
		<path id="XMLID_468_" class="st22" d="M275.5,92.6c-2.2,0.1-2.8,5.1-5.7,2.1c-9.9-10.3-21.9-18.7-32.7-28.2
			c-3.1-2.7-6.2-5.3-5.3-9.6c15.1-0.7,30.5-2.5,41.7,9.4c-0.1,0.4-0.2,0.9-0.4,1.3c-0.9,1.7-2.4,2.9-4.4,3.6c-2,0.6-4.2,0.1-7.7,0.5
			c5,4.9,10.2,8.6,13.8,13.3C276.1,87.4,278,89.8,275.5,92.6z"/>
		<path id="XMLID_467_" class="st23" d="M264.7,298.6c-0.4,0-1-0.1-1,0c-6.3,9.8-16.7,5.1-25.7,5.4c-3,0.1-6.8-0.1-7.6-2.4
			c-2.3-6.6-7.6-3.1-11.9-3.2c-2.6,1.9-2.5-2.5-4.7-1.5c-4-7.3-4.7-15.3-6.4-23c8.9-2.9,12.3,0.7,12.8,7.8
			c12.3,10.1,26.3,10.5,41.2,5C263.7,290.4,266.8,294,264.7,298.6z"/>
		<path id="XMLID_466_" class="st24" d="M376.8,238.6c-13.6-2.5-9.8-11.3-9.4-19c3.9-0.2,3.7,2.5,4.3,4.6c-0.5-4.7-0.1-9.3-1.3-13.8
			c-1.1-4.2-3.8-4.9-7.6-1.9c-10.4-4.2-13.8-12.9-8.4-20.4c2.4-3.4,6.5,1.5,8.4-1.9C383.4,199.1,389.2,220.8,376.8,238.6z"/>
		<path id="XMLID_465_" class="st25" d="M141.9,68.3c22.9,0,32.2,5.1,37.2,20.6c-2.3,0.9-4-0.1-5.8-1.2c-11.5-10.5-22-9.4-30.4,3.2
			c-1.2,1.9-2,4-4.5,5c-4.1,1.2-8.1,1.3-12.2-0.1c-5.1-3.2-1.9-7.9-2.8-11.8c0.4-2.1,0.8-4.2,1.3-6.4
			C132.5,77.4,135.4,70.3,141.9,68.3z"/>
		<path id="XMLID_464_" class="st26" d="M332.3,128.1c-9.2-0.1-10.1-6.4-10.4-11.7c-0.1-2.6,1-9,9.1-4.2c7.2,4.2,11.3,11.4,19.9,14
			c3.2,3.3,4.4,7.2,5,11.4c-1.2,6.2-1.4,12.4,0.1,18.6c-0.6,1.3-1.2,2.6-1.8,3.9c-2.2-2.5-4.4-5-6.5-7.6c-3.6-2.6-1.8-6.3-3-9.4
			c-0.2-3.9-0.5-8-3.4-11.2C339.3,129.4,337.3,125.7,332.3,128.1z"/>
		<path id="XMLID_463_" class="st27" d="M214,61.8c0,0.3,0,0.6,0,0.9c0.6,5.1-11.2,5.4-6.7,10.8c3.5,4.2,10-1.2,15.3,0.2
			c2.9,0.8,6.6-0.8,9,2.1c-11.8,2.8-22.7,6.9-31.4,14.5c-1.3,1.1-3.1,1.6-4.9,0.6c-1.6-0.9-0.8-2.2-0.3-3.3c1.1-2.3,0.4-4.9,1.6-7.2
			c-0.1-1-0.2-1.9-0.2-2.9c0.8-1.3,1.5-2.5,2.3-3.8c-0.4-1.6,0.6-2.4,2.4-2.8c2.3-2.1,4.5-4.3,6.8-6.4
			C209.8,63.7,211.9,62.7,214,61.8z"/>
		<path id="XMLID_462_" class="st28" d="M141.9,68.3c-4.4,5-6.3,13.4-17.3,9.4c2.3-10.3,8.6-18.1,19.3-23.2
			C145.4,59.3,138.3,63.2,141.9,68.3z"/>
		<path id="XMLID_461_" class="st29" d="M213.8,296.9c3-2.8,2.8,1.8,4.7,1.5c2.9,9.2,8.4,16.2,18.7,21.1c6.7,3.2,12.5-2.3,18.4,0.8
			c-5.5,3.9-14.1,2.7-18.9,8c-0.3,0.4-2.5-0.5-3.8-0.8c4-8.2-6.8-8.1-9.5-12.6c-2.4-3.7-4.7-7.3-7.1-11
			C215.5,301.6,214.6,299.2,213.8,296.9z"/>
		<path id="XMLID_460_" class="st30" d="M242.4,366.9c10.5-11.2,20.7-22.4,30.6-33.9c0.4-0.4,2.5,0.2,4,0.4
			C270,348.3,255.2,356.9,242.4,366.9z"/>
		<path id="XMLID_459_" class="st31" d="M216.3,283.3c5.3-8.8-2.5-8.7-8.9-9.5c-3.1-2.3-6.3-4.6-9.4-7c1.7-0.1,3.5-0.2,5.2-0.3
			c8.3,3.2,17.3,3.7,26.1,5.1c1.1,1.3,0.5,2.5-0.3,3.7C225.5,278.9,227.7,289.1,216.3,283.3z"/>
		<path id="XMLID_458_" class="st32" d="M224.3,373.7c2.8-7.6,5.4-15.2,7.3-22.9c0.5-2,1.2-3.8,4-3.2c2.5,0.5,1.7,2.2,1.2,3.7
			C234.4,359.5,229.2,366.5,224.3,373.7z"/>
		<path id="XMLID_457_" class="st33" d="M123.3,84c2,3.5-1.6,8.3,3.5,11c1.7,2.6,0,4.4-1.8,6.2c-3.9,2.8-8,2.8-12.2,0.6
			c-0.9-0.6-1.6-1.3-2-2.2C118.9,96.7,124.5,92.4,123.3,84z"/>
		<path id="XMLID_456_" class="st34" d="M110.8,99.7c1,0.2,2,0.4,3,0.6c0.7,2.9-1.8,4.5-3.6,6.5c-2.7,2.1-4.2,5.9-9,5.5
			c-1.6-0.4-2.3-1.5-2.7-2.7C101.5,105.2,105.8,102.2,110.8,99.7z"/>
		<path id="XMLID_455_" class="st35" d="M146.3,311.3c-0.5-1.4-1.8-3,1.2-3.4c1.8-0.2,3.8-0.1,4.7,1.5c1.1,1.8,0.1,4.4,2.5,5.9
			c1.7,2.3,2.1,4.1-2.2,3.9c-1.9-0.1-4.9,0.4-2.9-2.8C151.6,313.2,149.9,311.7,146.3,311.3z"/>
		<path id="XMLID_454_" class="st36" d="M281.8,320.8c3-2.9,3.9-0.8,4.6,1.5c-0.3,0.2-0.5,0.4-0.8,0.6c-2.1,1.6-0.5,6.4-5.6,5.2
			c-3.2-0.7-5.4-2.3-0.7-4.5C280.4,323,281,321.7,281.8,320.8z"/>
		<path id="XMLID_453_" class="st13" d="M60.7,226.6c0.7,6.7-0.5,13.2-3.7,19.4C56,239.2,56.3,232.6,60.7,226.6z"/>
		<path id="XMLID_452_" class="st22" d="M283.7,75.8c-0.6,0-1.3,0-1.9,0c-9.5,0.2-10.5-0.9-8.7-9.3c0,0,0.3-0.3,0.3-0.3
			C278,68.5,281.1,72,283.7,75.8z"/>
		<path id="XMLID_451_" class="st37" d="M91.7,135.5c-0.7,3.1,1.1,6.6-1.7,9.4c-0.8-7.6-3-15.2,1.5-22.5c0.4,0.4,0.9,0.7,1.3,1.1
			C95.2,127.6,94.1,131.6,91.7,135.5z"/>
		<path id="XMLID_450_" class="st38" d="M98.5,109.5c0.7,0.6,1.3,1.2,2,1.9c0.6,0.7,0.9,1.5,0.7,2.4c-2.4,3.5-3.1,8.5-9.6,8.8
			c0,0,0-0.3,0-0.3C91.4,117.1,95.3,113.4,98.5,109.5z"/>
		<path id="XMLID_449_" class="st39" d="M356.1,156.2c-3.2-6.2-2.9-12.4-0.1-18.6C357.3,143.8,357.8,150,356.1,156.2z"/>
		<path id="XMLID_448_" class="st40" d="M130.8,306.1c6.2-2,9.4-0.7,8.9,3.6C136.1,309.6,133.2,308.3,130.8,306.1z"/>
		<path id="XMLID_437_" class="st41" d="M200.9,71c-0.8,0.9-1.6,1.9-2.4,2.8c-5-3.1-10-6.1-15-9.2c-1.7-1.1-4.4-2-3.3-4.2
			c1.3-2.6,4.3-1.6,6.7-1.1C193.9,61.1,199.2,64.5,200.9,71z"/>
		<path id="XMLID_436_" class="st42" d="M196.5,80.4c0.1,3,0.6,6-0.5,9.3c10.2-8.2,20.1-16.2,35.5-14c8.7,4.2,14.1,10.8,17.5,18.7
			c-4.8,1.6-8.3-0.8-12-2.8c-8.3-4.3-15.2-3.3-22.5,2.4c-8.1,6.3-15.7,12.4-9.2,22.9c1.2,1.9,2.3,5,4.8,4.5c8-1.6,16,2.1,23.4-0.1
			c6.2-1.8,10.2-6.8,13.4-11.8c1.6-2.5,3.3-4.8,6.6-5.9c0.7,0,1.4,0,2.1,0.1c10.1,12,10.3,14,2.9,22.9c-7.3,8.6-22.1,13.7-32.4,10.5
			c-6.2-1.9-11.3-1.6-16.1,2.2c-9.5-0.6-8.8-8.7-13.1-13.1c-2.9-5.9-5.6-11.8-7.1-18.1c0.3-5.2,1.8-10.2,2-15.4
			C192.8,88.5,193,84,196.5,80.4z"/>
		<path id="XMLID_435_" class="st43" d="M191.7,92.8c0.2,5.6,0.4,11.2,0.6,16.8c-5.1,2.4-3.1,7.6-5.9,10.9c-8.8-0.1-8.1-8.8-14-11.5
			c-1.4-1.2-2.5-2.5-2.8-4.2c0.1-2-0.6-3.9-0.7-5.8c2-4,4.5-7.8,6-12c1.4,0.6,2.9,1.2,4.3,1.9c3.2,4,7.4,7.2,9.4,12.4
			C191.2,98.1,188.9,94.8,191.7,92.8z"/>
		<path id="XMLID_434_" class="st44" d="M144.1,246c9.4,6,7.5,14.4,6.4,22.5c-1.1,7.6-8.5,9.5-15.6,10.9
			c-9.9,1.9-24.1-5.7-26.4-13.8c-1.5-5.2,10.1-21.5,16.6-21.9C131.4,243.2,137.4,247.1,144.1,246L144.1,246z"/>
		<path id="XMLID_433_" class="st45" d="M179,245.9c1.5,2.4,2.8,4.9,4.4,7.3c1.9,2.8,5.1,5.5,1.4,8.9c-3.5,3.2-7.6,0.9-10.8,0
			c-4.2-1.2-7.5-4.7-12.4-4.8c-7.5-1.8-8.8-10.8-17.4-11.3c0,0,0,0,0,0c0.3-4.4-5.1-5.8-6.7-9.3c-0.8-1-0.7-1.8,0.3-2.6
			c2.6-1.5,5.7-2.2,8.3-1.3C157.3,236.8,169.8,238.4,179,245.9z"/>
		<path id="XMLID_432_" class="st46" d="M137.6,234.7c0,0.7-0.1,1.3-0.1,2c-6.3-3.8-13.4-4.1-20.7-3.8c-4.5,0.2-8.9,0.1-9.9,5.1
			c-0.8,3.9-4.7,4-7.5,3.3c-4.7-1.2-1.4-4-0.4-5.9c1.2-2.4,1.3-4.8,1-7.2c2.3-5.2,8.4-7.7,12-12c1.4-2.3,3.5-3.7,6.7-3.6
			c1.9-0.2,3.8-0.3,5.8-0.5c3-0.4,2.8,1.2,1.9,2.7c-1.5,2.9-4.8,4.4-8.2,6.7C125.2,225.9,134.7,227,137.6,234.7z"/>
		<path id="XMLID_431_" class="st47" d="M332.3,128.1c1.6-6.4,5.5-3.4,8.4-1.2c4.9,3.7,6.8,8.7,6.7,14.2c-1.9,3.3-4.1,2.8-6.4,0.3
			C338.1,137,335.2,132.5,332.3,128.1z"/>
		<path id="XMLID_430_" class="st48" d="M341,141.4c2.2,0.8,4.3,1.2,6.4-0.3c0.1,3.8,0.3,7.6,0.4,11.4c-1.1,3.5-2.9,3.4-4,0.2
			C342.4,149,341.9,145.2,341,141.4z"/>
		<path id="XMLID_429_" class="st49" d="M137.6,234.7c-6.2-2.1-9.1-9.4-17.5-8c0.3-2.9-10.7-5.1-0.6-8.9c2.2-0.8,6.1-2.2,4.9-5.8
			c1.6-1.8,4-1.9,6.4-2.2c6.1-5,13-3.5,19.9-1.8c2.2,0.6,4.2,1.4,4.9,3.5c-4.3,5.5-11,0.8-16.8,3.2c2.5,3.5,6.6,5.3,10.4,7.3
			c3.8,2.1,8.3,2.7,12.3,4.2c4.4,2.2,7.1,7,13.3,6.6c4.7,3.6,4.6,8.3,4.3,13C164.6,243.8,153.1,233.8,137.6,234.7z"/>
		<path id="XMLID_428_" class="st50" d="M148.5,223.5c-6.1-1.5-13.9-5.2-12.9-9.3c1.5-6,9.6-1.7,14.9-1.9c1.8-0.1,3.6-0.2,5.4-0.3
			c5.3-3.2,9.3-0.2,13.4,2.2c2.6,1.9,4.4,4.2,4.6,7.2c-0.1,1-0.6,1.8-1.4,2.4c-1.8,0.6-2.2,2-2.3,3.4c-3.4,0.6-5.1-1.9-7.6-2.9
			C158.1,221.7,153.4,221.9,148.5,223.5z"/>
		<path id="XMLID_427_" class="st51" d="M172.4,223.9c0.1-0.7,0.2-1.4,0.2-2.2c6.8-1,9.9,2.1,10.8,7.4c1.5,3.7,3,7.3,4.5,11
			c0,3,0,6.1,0,9.1C183.6,240.2,180.2,231.1,172.4,223.9z"/>
		<path id="XMLID_426_" class="st52" d="M164.1,223.4c3.2,0,4,2.7,6,4c1.5,1.9,3.1,3.7,4.6,5.6c-0.5,1.7-1.1,4.6-3.7,2.7
			c-3.4-2.4-8.5-3.6-9.5-8.1C160.2,225.2,161.9,224.1,164.1,223.4z"/>
		<path id="XMLID_425_" class="st53" d="M264.7,298.6c-0.4-4.1-1.4-8.1-3.8-11.8c-7.2-6.7-3.3-14.6-3.4-22c2.1-6.7,3.9-13.5,7-19.9
			c3.3-4.9,7-9.5,12-13.2c2.3-1.4,4.7-2.5,7.6-1c-0.2,2.7-4.9,4.5-2.3,7.8c-0.3,6.1-4.6,10.9-7,16.4c-2.1,4.8-4.8,9.3,2.2,13
			c2.5,1.3,2.7,4.3,4.2,6.4c4.1,6,10.6,8.5,18.4,8c6.1-0.4,10-4.2,11.1-9c1.6-6.6-1.1-12.2-7.7-16.2c-10.4-6.3-11.9-11.7-5.8-20.5
			c13.7,4.8,23.1,12.3,21.9,26.2c-1.1,5.1,1.3,9.8,2.3,14.6c1.1,5.2,3.5,11.1-2.9,14.2c-8.6,4.2-17.2,13.2-28.2,6.6
			c-8.2-4.9-19.9-5.8-25.2-15.1c-2.9,7.5,5.9,13.8,1.9,20.9C266.3,302.2,265.5,300.4,264.7,298.6z"/>
		<path id="XMLID_424_" class="st54" d="M297.3,236.6c-0.9,8-3.4,15.5,9.5,19.9c7,2.4,9.4,11.2,7,18c-1.9,5.5-6.5,10.9-14.7,10.7
			c-8.6-0.2-16.3-2.7-20.7-9.7c-1-1.6-0.5-4.7-1.7-5.2c-15.8-6.1-4.5-13.5-1.7-20.5c1.6-4.1,2.7-8.3,6.9-11.2
			C286.9,236.9,290.6,227.9,297.3,236.6z"/>
		<path id="XMLID_423_" class="st55" d="M284.2,230.7c-2.2,0.8-4.4,1.6-6.7,2.5c-6.3,1.8-10.7,0.2-13.2-5.1
			c-0.9-3.4-0.8-6.8-0.6-10.2c1.1-17.8-8.7-30.1-26.1-38.6c-2.5-1.2-5.2-2.2-7-4.3c-1.8-2.7-1.8-5.5-0.7-8.4
			c4.7-6.4,9.3-13,18.6-15.4c2.4-0.9,4.7-2.1,7.4-0.9c0.6,2.6,1.2,5.1,1.8,7.7c2.6,5.8,1.3,12,3.1,18c3.1,10.2,10.3,18,16.9,26.3
			c1.9,2.3,2.2-0.6,3.5-0.3c4.7,1.1,10-2.7,14.4,1.2c-0.6,8.3-3.3,16.2-7.1,23.8C287.2,228.3,285.7,229.5,284.2,230.7z"/>
		<path id="XMLID_422_" class="st56" d="M343.1,233.3c-4.6-2.4-8-7-14.5-6.2c-1.7-1.1-3.5-2.2-5.2-3.3c1.1-2.8,7.6-1.3,6.4-5.1
			c-1.2-3.9-5.8-3-9.4-2.5c-4.1,0.5-7.9-0.9-11.4-1.2c-0.7-0.1-0.4,0.2,0.7,0.3c5.4,0.3,3.1,3.1,2.5,5.3c3.7-0.5,7.9-2.2,9,3
			c-6.6-0.1-13.1-0.2-19.7-0.3c-6.3-3.2-8.4-13.4-3.4-17.8c15.1-13,40.7-8.7,47.1,6.8C344.3,219.3,347.7,226.6,343.1,233.3z"/>
		<path id="XMLID_421_" class="st57" d="M345.2,212.3c-5.3-9.1-16.7-11-26-12.9c-6.5-1.3-15.7,3.7-19.8,8.7
			c-1.9,2.3-5.3,10.8,2.1,15.2c-4.8,0-7.8,4.4-12.8,3.8c-1.8-8.9,3.9-16.4,5.7-24.7c0.9-3.7,5.5-1,7.3-3.2c7.4-1,13-5.5,19.8-7.6
			c5.6-2.6,10.3-0.3,15,2.1C339.3,200,346.7,204.6,345.2,212.3z"/>
		<path id="XMLID_420_" class="st58" d="M321.2,223.5c-4.2-3.6-9.7-0.8-14.5-2.2c0-2.7,4.6-0.9,4.6-2.9c-0.1-4.2-5.9-0.8-7.4-3.8
			c7.4-1.3,14.8,0,22.2-1.8c8.6-2.1,4.4,7.2,11.3,8.4c-5.5,3.5-10.1,1.7-14,2.6C322.6,223.7,321.9,223.6,321.2,223.5z"/>
		<path id="XMLID_419_" class="st59" d="M314.7,137.5c1.2,7.8-1.2,15.4-2.4,23c-1.4,9-18.4,13.4-29.4,8.7
			c-24.8-10.5-21.1-41.5,0.1-52.8c0.2,0.2,0.7,0.5,0.7,0.5c-6.6,13.7,0.7,15.1,14.6,13.5C303.9,129.8,311.3,131.7,314.7,137.5
			C314.7,137.5,314.7,137.5,314.7,137.5z"/>
		<path id="XMLID_418_" class="st60" d="M256,150.3c-1.9,0.7-3.9,1.5-5.8,2.2c-19.7,6.2-29.3,3.5-40.4-11.5c-0.1-0.5-0.2-1-0.3-1.5
			c2.1-9.9,10.1-7,16.6-5c13,4,35.2-6.8,35.7-18.2c0.2-4.7-6.3-7.6-6.2-12.5c6,3.8,12,7.5,18,11.3
			C262.5,124.9,259.4,137.7,256,150.3z"/>
		<path id="XMLID_417_" class="st61" d="M301.7,199.2c-2.4,1.1-4.8,2.1-7.3,3.2c-5.3,1.7-13.2-2.5-16.1,5.3
			c-0.5,1.4-3.9,1.2-5.7-0.3c-2.1-1.7-0.5-2.6,1.2-3.4c4-1.8,2.4-3.3-0.1-5.3c-13.9-11.1-15.8-25.6-15.9-40.7
			c5.1,3.5-0.5,9.6,4.5,13.1c0.4,6.3,3.2,12.1,6.2,17.7C275.3,201.8,288.6,200.3,301.7,199.2z"/>
		<path id="XMLID_416_" class="st62" d="M336.5,193.7c-5.7,3.1-9.5-4-15-2.1c3-1.7,5.9-3.4,8.9-5.2
			C332.6,188.7,337.2,189.6,336.5,193.7z"/>
		<path id="XMLID_415_" class="st63" d="M89.4,203.1c-3.4-2.9-12-2.6-9.8-8.7c2.2-6,6.1-12.1,14.7-13.7c4.2-0.8,8.5-1.4,12.7-2.2
			c0.7,0,1.4,0.1,2.1,0.1c8,2.7,12.1,9.5,18.8,13.7c6.1,3.9,4.1,7.6-3.4,9.6c-2.8,0.7-5.8,0.1-8.5,1
			C107.1,203.1,98.2,203.1,89.4,203.1z"/>
		<path id="XMLID_414_" class="st64" d="M115.9,203c3-4,11.4-1.3,12.4-5.6c1.4-5.7-7.3-5.2-10.4-8.5c-3.1-3.3-6-6.8-8.9-10.2
			c0.7-0.6,1.4-1.2,2.2-1.8c3.9-1.5,6.4,0.9,8.4,2.9c7.5,7.5,17.4,11.2,28.3,13c7.2,1.1,9.4,4,6.9,9.7c-1.1,2.6-1.6,5.4-4.1,7.4
			c-6.7-1.5-13.4-1.7-20-0.1C127.3,205.2,120.7,205.5,115.9,203z"/>
		<path id="XMLID_413_" class="st65" d="M118.6,212.5c-1.8,1.8-3.7,3.3-6.7,3.6c-4.1-0.6-8.8,1.3-12.3-1.9c-1.3-1.2,0-2.3,1-3.1
			c4.2-3.1,8.8-1.8,13.3-0.8C115.6,210.8,117.1,211.8,118.6,212.5z"/>
		<path id="XMLID_412_" class="st66" d="M253.5,103.8c-2.7,6.8-7.7,12.3-13.7,17.1c-3.9,3.1-8.6,7.4-15,2.8
			c-2.1-1.5-4.9-1.4-7.3-0.5c-6.3,2.4-12.2,3.4-14.1-4.1c-1.7-6.8-9.8-13.8,1.8-20.3c7.8-4.3,11.6-13.3,24-12.3
			c8.4,0.6,11.9,7.8,19.7,8.1C250.5,97.6,252,100.7,253.5,103.8z"/>
		<path id="XMLID_411_" class="st67" d="M273.1,66.5c-0.4,5.4,2.3,8.6,8.7,9.3c-0.7,5.4,4,9.6,3.5,15.6c-0.7,7.5-3,5.9-7.7,3
			c1.1-3.7-0.6-7-2-10.3c-2.2-4.6-7.1-8.1-6.9-13.5C269.4,68.6,270.9,67.2,273.1,66.5z"/>
		<path id="XMLID_410_" class="st68" d="M277.5,83.3c3.4,3.7,3.4,7.4,0.1,11.1c-0.7-0.6-1.4-1.2-2.2-1.8c-0.8-2.5-1.6-4.9-2.4-7.4
			C274.1,83.7,275.7,83.3,277.5,83.3z"/>
		<path id="XMLID_409_" class="st69" d="M362.8,208.6c0.6-2.3-1.6-5.7,1.8-6.6c3.7-1,6.1,2.2,7.3,4.5c3.7,7.4,2.7,15-0.2,23.5
			c-3.6-3.5-0.6-8-4.4-10.3C367.9,215.4,365.9,211.8,362.8,208.6z"/>
		<path id="XMLID_408_" class="st70" d="M183.5,229.1c-3.1-3-5.5-6.8-10.8-7.4c-1.7-2.1-3.4-4.2-5-6.3c-4.9-8.9,1.2-16,5-23.5
			c4-5.8,8.2-11.4,17-12.3c4.1,0.6,9.1,1.6,7.9,5.9c-2,7.1,3.2,7.6,8.6,8.8c11,2.4,16,9.5,19,18.1c0,0-0.1,0-0.1,0
			c-2.7,0-4.6-1.4-6.5-2.8c-9.8-7.1-18.4-6.6-26.6,1.5c-1.8,1.8-4.1,3.4-6.1,5c3.6,3.1,8.5,5.9,4.3,11.2
			C187.9,227.9,185.7,228.5,183.5,229.1z"/>
		<path id="XMLID_407_" class="st71" d="M190,227.3c1.4-4.5-4.4-7.1-4.3-11.2c6.8-0.6,13.5-1.4,20.3-1.9c4.2-0.3,8.9,0,7.9,5
			c-1.1,5.5,7.5,13.1-4.4,16.5c-5.8,1.7-10.8,1.3-14.1-3.5C194,230.2,194,227.2,190,227.3z"/>
		<path id="XMLID_406_" class="st72" d="M225.1,212.3c-8-8.1-14-18.5-29.6-17.6c-4.7,0.3-2.2-3.2-1.3-4.6c3.3-5,0-7.6-4.3-10.1
			c1.5-5.4,6.8-6.4,11.9-7.8c10-1.6,20.2-4.5,29.6,1.7c26.3,9.3,39.1,24.3,35,53.5c-0.8,0.5-1.7,0.9-2.6,1.2
			c-9-1.2-9.6,6.7-14.7,9.8c-9.8-5.2-12.6-15.1-20.2-21.7C227.4,215.5,226.3,213.8,225.1,212.3z"/>
		<path id="XMLID_405_" class="st73" d="M260.6,262.9c0.1,8,0.2,16,0.3,23.9c-7.5,6.8-17.3,6.2-26.9,5.8c-1,0-2.8-0.3-2.9-0.7
			c-1.7-5.6-7.1-5.3-12.2-5.9c-1-0.1-1.7-1.8-2.6-2.8c3.6-0.7,11.6,2.8,6.9-5.7c-1-1.7,1.9-2.8,4.2-2.9c2.7,0.2,4.6,1.5,6.6,2.9
			c2.9,2,6,4.1,9.6,1.5c3.6-2.6,3.4-5.8,1-9.1c-1.6-2.2-1.7-4.7-1.5-7.1c3.5-4.3,7-8.6,10.5-12.9C259.2,252.9,262.2,257,260.6,262.9
			z"/>
		<path id="XMLID_404_" class="st72" d="M229.9,272.4c-9.4-0.1-19.6,2.3-26.7-5.8c5-4.5,2.1-7.3-2.8-9.3c0.6-2.4,2.6-2.3,3.6-1.9
			c14.4,5.9,23.6-2.7,33.6-8.9c1.9-1.2,2.5-4.5,5.7-3c2.6,1.2,0.9,4,1.6,6c1.8,5.4-4.4,9-4.1,14.1C241,270,237.7,273.2,229.9,272.4z
			"/>
		<path id="XMLID_403_" class="st74" d="M229.9,272.4c5.1-1.6,8.1-5,10.8-8.8c0.8-0.2,1.5-0.5,2.3-0.7c4.5,1.7,3.1,6.2,5.7,9.1
			c2.4,2.6,0.7,7.8-4.1,10.3c-4.5,2.3-8.2,0.8-11.4-2.2c-1.9-1.8-3.9-3.6-5.9-5.4C228.2,273.9,229,273.1,229.9,272.4z"/>
		<path id="XMLID_402_" class="st75" d="M249.1,238.5c2.9-6.2,3-15.4,15.9-10.9c1.9,4.8-0.1,9.1-2.4,13.4c-2.2,3.1-3.4,7.1-8.8,7.5
			C253.1,244.8,247,243.1,249.1,238.5z"/>
		<path id="XMLID_401_" class="st76" d="M253.9,248.4c2.1-2.7,4.2-5.4,6.3-8.2c2.5,1.1,9-2.4,6.6,4.2c-2.1,6.1-4.2,12.3-6.2,18.4
			c0.6-5.5-6.5-7.9-7.1-13C253.7,249.5,253.8,249,253.9,248.4z"/>
		<path id="XMLID_400_" class="st77" d="M343.3,257.1c-1.5-2.1-3.1-4.2-4.4-6.4c-1.5-2.5-6.4-5.3-2.1-7.8c3.5-2.1,6.3,2,8.7,4.1
			c2.6,2.2,4,5.2,4.5,8.3C349.1,259.6,346.3,258.6,343.3,257.1z"/>
		<path id="XMLID_399_" class="st78" d="M343.3,257.1c2.5,0.1,5,0.4,6.6-1.8c3.5,5.1,2.6,10.2-0.4,17.1
			C346.7,266.4,342.8,262.5,343.3,257.1z"/>
		<path id="XMLID_398_" class="st79" d="M109.3,173c2.1-1.2,4.3-2.5,6.4-3.7c3.4-3.8,8.4-3.6,13-3.1c10.5,1.1,16.3-4.4,21.1-10.8
			c4.9-6.5,1.8-12.4-3.6-17.8c-2.1-2.1-4.3-4.4-2.5-7.5c10.2-0.1,13.2,8.2,19.6,12.5c4.7,4.6,5.3,11.2,12.3,15.2
			c4,2.2,2.2,8.7-0.4,12.9c-3.1,4.8-5.9,9.8-10.3,14c-6,3.6-9.8,2-9.9-4c-0.2-5.7-2.1-6.2-8.3-4.8c-8.5,2-18-0.4-26.3,3.6
			c-4-0.1-5.9-3.4-9.3-4.5C109.8,174.7,109,174.2,109.3,173z"/>
		<path id="XMLID_397_" class="st80" d="M111,175c4-0.5,6,2.5,9,3.7c2.7-0.1,4.9,0.8,6.8,2.3c9.5,7.4,20.4,9.7,32.7,6.3
			c1.5-0.4,2.8-0.2,4.1,0.3c1.5,4.8-2.6,8.6-3.5,13c-0.5,2.5-3.4,5.1-7.1,1.8c0.3-3.8,1.8-7.4-5.9-7.6c-15.5-0.3-25.2-10-35.9-17.9
			C111.1,176.3,111.1,175.6,111,175z"/>
		<path id="XMLID_396_" class="st33" d="M161.6,143.2c-5.8-4.3-11.7-8.7-17.5-13c-6.5,0.1-9.4-4.2-12.9-7.8c-1.5-1.2-3-2.4-4.5-3.6
			c-5.9-2-12-0.3-17.9-1c-3.5-0.4-8.4,0.6-8.4-4.6c0.1-0.6,0.1-1.2,0.2-1.7c4.5,0,4.8-4.9,8.7-5.7c6.1-3.6,11.3-0.9,15.8,2.2
			c8.4,5.8,18.8,7.6,28.2,11.4c4.5,1.8,9.2,1.1,13.6-0.5c3.6-3.3-3.7-10.7,6-11.7c7.2,2.8,8.2,9.6,12.7,14.2c2.3,1.5,2.8,3.7,3.1,6
			c-0.4,6.1,1.8,12.4-2.3,18.2C177.4,149.5,169.3,147.6,161.6,143.2z"/>
		<path id="XMLID_395_" class="st81" d="M131.2,122.4c6,0.5,8.3,5.6,12.9,7.8c0.9,1.6,1.5,3.5,2.8,4.9c12.3,12.7,10.2,23.4-6.2,32.1
			c-4.2,2.2-8,1.4-12.3,1c-4.1-0.4-8.4,0.7-12.6,1.2c-0.9-1.6-1.2-4.1-2.6-4.8c-15.3-7.5-6.8-18.8-5.6-28.3
			c1.1-8.4,11.5-9,18.8-11.9C127.9,123.6,129.5,123,131.2,122.4z"/>
		<path id="XMLID_394_" class="st34" d="M100.3,113.1c4.4,4.4,10.6,3.1,16.1,3.8c3.5,0.4,7.4-1.1,10.2,1.9c-1.1,0-2.2,0.1-3.3,0
			c-11.1-1.1-20.4,0.6-25.5,10.5c-1.2,2.4-2.5,5.3-6.1,6.3c-0.1-4.3-0.1-8.6-0.2-12.9C94.5,119.5,97.4,116.3,100.3,113.1z"/>
		<path id="XMLID_393_" class="st82" d="M277.5,83.3c-1,1.5-2.7,1.8-4.4,1.9c-3-2.6-5.9-5.3-9.1-7.7c-3.1-2.4-9.4-4.3-6.9-8
			c2.6-3.9,7.7,0.1,11.7,1.1C272.2,74.5,275.6,78.5,277.5,83.3z"/>
		<path id="XMLID_392_" class="st83" d="M172.7,107c-1.9,2.5-5.9,4.3-1.7,8.1c2.7,2.5,1.7,5-2.8,5.6c-7.9-1.1-14.2-5.3-21.5-7.7
			c-2.7-0.9-5.1-2.6-2.6-5.6c4.2-3.2,7.8,0.1,13.4,0.9c-6.1-2.6-10.4-4.1-14.6-0.1c-8,0.1-15.4-0.7-18.7-8.3c0.9-1.7,1.8-3.4,2.7-5
			c4.3-0.3,8.6-0.6,12.9-0.8c1.4-0.9,2.9-1.5,4.7-1.7c10.3,1.2,20.4,2.7,26,11.6C171.3,105,172,106,172.7,107z"/>
		<path id="XMLID_391_" class="st84" d="M144.2,94.2c-1.5,0-3,0-4.4,0c0-10,8.5-13.6,17.6-16.2c9.5-2.7,13.5,3.3,17.3,9
			c4.4,5.8-2.5,8.8-4.4,13.1C161.3,99.3,154.5,91,144.2,94.2z"/>
		<path id="XMLID_390_" class="st85" d="M124.2,100.1c5.9,3.9,12.5,6.4,19.8,7.6l0.1,0c4.9,6.2,14,6.1,20.5,10
			c1.5,0.9,3,1.6,3.7,3.1c-7,4.6-13.8,1.8-20.4-0.6c-9.4-3.5-19.2-6.2-27.2-12.2c-3.1-2.3-7.3-2.4-11.4-2.2c1.6-1.8,3.1-3.6,4.7-5.4
			C117.4,102.3,120.8,102.1,124.2,100.1z"/>
		<path id="XMLID_389_" class="st86" d="M231.4,174c-10.2-1.4-20.3-1.9-30.4,0.7c-6.1-5.3,0.8-4.5,3.6-5.7c6.6,1.3,7.5-2.8,8.4-6.7
			c0.9-3.8,0.8-7.3-4.1-9.3c-3.9-1.6-8.2-1.9-12.3-3c-4-1.5-7.8-3.3-9.5-7c-0.5-2.3-0.3-4.6-0.1-6.9c2.2-4.7,4.3-9.5,11.7-9.7
			c5,3.6,4.7,10.3,10.9,13.2c0,0,0.1-0.2,0.1-0.2c4,6.8,10,12.2,18.3,14.5c9.4,2.6,8.4,6.6,3.9,11.9
			C231.7,168.6,231.5,171.3,231.4,174z"/>
		<path id="XMLID_388_" class="st87" d="M198.6,126.4c-3.5,3-7.1,5.9-10.6,8.9c-2.9-2.6,0.5-6.4-2.4-9c-0.1-1.7-0.2-3.4-0.2-5.1
			c0.1-3,0.3-6,0.2-8.9c0-4.9,2.8-4.6,6.6-2.8C194.4,115.2,196.5,120.8,198.6,126.4z"/>
		<path id="XMLID_387_" class="st88" d="M144.2,94.2c11.1-5.6,18.1,1.9,26.2,5.9c0.4,1.3,2.4,2.6,0.1,4
			C162.6,99,153.8,95.8,144.2,94.2z"/>
		<path id="XMLID_386_" class="st89" d="M153,202.4c2.8,0.7,6.6-1.1,5.9-2.2c-3.6-6,3.8-8.2,5.1-12.3c-1-1.9,0.4-2.1,2-2.3
			c3.8,1,8.2,1.3,8.8,5.8c-3.3,7.8-7.2,15.4-7.2,23.9c-3.7-1.6-7.1-4.2-11.8-3.3c-1.7-0.7-3.4-1.4-5.1-2.1
			C150.8,207.3,150.5,204.5,153,202.4z"/>
		<path id="XMLID_385_" class="st90" d="M164.1,223.4c-0.9,1.4-1.7,2.8-2.6,4.2c-4.8-0.2-9.6-0.5-13-4
			C153.6,216.7,158.9,218.9,164.1,223.4z"/>
		<path id="XMLID_384_" class="st91" d="M266.8,244.5c0.1-4-6.3-0.6-6.6-4.2c1.6-4.3,3.2-8.5,4.8-12.8c0.5,0,0.9,0,1.4,0
			c1.8,4.7,7.5,3.7,11.2,5.6C274,237,270.4,240.7,266.8,244.5z"/>
		<path id="XMLID_383_" class="st92" d="M231.8,165.9c2.9-7-1.4-9.8-8.5-12.3c-7-2.5-12.3-7.3-13.7-14.2c4.5,0.8,5.3,4.8,8,7.1
			c9.5,8.4,20.6,8.6,32.6,6c-3.1,5.1-16.1,2.6-13.1,12.4C235.3,165.2,233.6,165.5,231.8,165.9z"/>
		<path id="XMLID_382_" class="st93" d="M293.3,137.5c4.9,0,17.6,8.4,17.9,11.9c0.4,4.2-11.1,14.3-16.3,14.3
			c-11.7,0.1-17.4-4-17.4-12.4C277.6,140.2,280.8,137.4,293.3,137.5z"/>
		<path id="XMLID_381_" class="st94" d="M174.8,191.5c-3.1-1.7-6.1-3.3-9.2-5c0.1-0.4,0.1-0.8,0.2-1.3c0.5-5,4.7-8.2,7.6-12.1
			c5.9-4.6,6.8-10.9,7.7-17.2c0.3-1.8,1.1-3.3,2.2-4.8c1.9-2.5,2.5-5.6,4.7-8.1c2.9,1.9,5.8,3.7,8.6,5.6c3.5,3.1,5.3,7.1,4.3,11
			c-1.3,4.9-0.4,8.6,4.4,11.5c-2.3,0.4-6.9-1.2-4.3,3.6c-3.7,1.8-7.4,3.6-11.1,5.3C183.5,182.5,179.7,187.6,174.8,191.5z"/>
		<path id="XMLID_380_" class="st95" d="M247.1,199.1c-5.3-3.1-10.6-6.2-15.9-9.4c-1.4-0.8-3.3-1.7-2.2-3.6c0.9-1.6,2.9-1.9,4.6-1.7
			c8.8,1.4,14.8,5.5,17.6,12.9C250.5,199,249.4,200,247.1,199.1z"/>
		<path id="XMLID_379_" class="st96" d="M247.1,199.1c1.4-0.6,2.8-1.1,4.2-1.7c3.8,2.8,4.7,6.5,5.4,12.8
			C252.4,205.3,249.8,202.2,247.1,199.1z"/>
		<path id="XMLID_378_" class="st97" d="M165.6,186.5c-0.5,0.5-1.1,1-1.6,1.5c-17.7,7.4-31.8,2.1-44.1-9.2c4-3.1,7.6-6,14.1-4.2
			c4.1,1.1,10.4,1.3,13.4-0.7c14.3-9.3,9.4,2.2,9.5,6.4c0.1,4.9,2.5,4.9,6.6,3.9c2-0.5,2.9,0.1,2.5,1.9L165.6,186.5z"/>
		<path id="XMLID_377_" class="st98" d="M166.1,186c-0.8-0.6-1.6-1.2-2.5-1.9c3.2-4.9,6.4-9.7,9.4-14.6c4.1-6.6,2-11.2-6.1-12.7
			c-2.4-0.5-3.6-1.4-2.5-2.8c3.8-4.7-2.1-7.2-2.8-10.8c7.9,1.2,15.8,2.5,23.9,1.7c1.7,2.5,2.1,5-0.2,7.5c-0.6,1.2-1.3,2.5-1.9,3.7
			c-2.3,6.5-3.9,13.2-8.8,18.9C171.8,178.6,169,182.3,166.1,186z"/>
		<path id="XMLID_376_" class="st99" d="M185.3,152.4c0.1-2.5,0.1-5,0.2-7.5c0-6.2,0.1-12.4,0.1-18.5c3.2,2.5,1.7,5.9,2.4,9
			c0,2.6,0,5.2,0,7.7C187.1,146.1,189.7,150,185.3,152.4z"/>
		<path id="XMLID_375_" class="st100" d="M144.1,147.6c0,9.3-3.8,12.4-15.3,12.4c-9.4,0-15.5-5.1-15.2-12.6
			c0.3-7.5,6.5-13.3,14.7-13.5C138,133.5,144.1,138.8,144.1,147.6z"/>
		<path id="XMLID_374_" class="st101" d="M144,107.6c4-4,15.4-4.3,17.9-0.3c0.4,0.6,0.4,1.9,0,2.4c-1.5,1.6-3.7,1.8-5.9,1.4
			C151.8,110.4,148.9,106.7,144,107.6C144,107.7,144,107.6,144,107.6z"/>
		<path id="XMLID_373_" class="st102" d="M205.3,171.1c-5.5-1.7-9-3.8-7-10.1c1.2-3.7-1-8.2-1.7-12.4c19,0.4,23.8,6.4,17,19
			C211.3,171.9,208.6,170.9,205.3,171.1z"/>
		<path id="XMLID_372_" class="st103" d="M174.7,174.9c2.9-6.3,5.8-12.6,8.8-18.9C183.2,163.3,181.9,170.1,174.7,174.9z"/>
	</g>
</g>
<g id="XMLID_3_">
	<g id="XMLID_172_">
		<path id="XMLID_200_" d="M27.4,116c-0.8-0.5-1.6-1.2-2.6-2.1c-0.9-0.9-1.9-1.8-2.9-2.8c-1-1-1.9-2-2.8-2.9
			c-0.9-0.9-1.7-1.7-2.3-2.4c0,0,0,0,0,0c-2.3-2.5-4.7-4.9-7.2-7.3c-0.9-0.9-1.8-1.7-2.6-2.7c-0.8-0.9-1.7-1.8-2.6-2.7
			c-0.8-0.7-1.6-1.5-2.4-2.3c-0.8-0.8-1.5-1.6-2.1-2.5c0.1-0.8,0.4-1.3,0.7-1.6c0.3-0.3,0.8-0.7,1.5-1.2c0.1,0,0.2,0,0.4-0.2
			c0.2-0.2,0.4-0.3,0.7-0.5c0.3-0.2,0.5-0.4,0.7-0.6c0.2-0.2,0.3-0.3,0.4-0.3c3.8,4,7.6,7.9,11.4,11.7c3.9,3.8,7.7,7.7,11.4,11.7
			c1.4,1.5,2.9,3.1,4.3,4.6c-0.1,0.2-0.1,0.5-0.2,0.7c-0.1,0.2-0.2,0.4-0.4,0.7c-0.2,0.3-0.4,0.5-0.7,0.7c-0.1,0.1-0.3,0.2-0.5,0.4
			c-0.3,0.2-0.6,0.4-0.9,0.6c-0.3,0.2-0.6,0.4-0.9,0.6C27.6,115.8,27.4,115.9,27.4,116z"/>
		<path id="XMLID_198_" d="M53.3,58.5c-1.5-0.8-3.1-1.3-4.7-1.5c-1.6-0.1-3.2,0.2-4.9,1.1c-2.3,1.2-3.9,2.8-4.7,4.8
			c-0.8,2-1.1,4.2-0.8,6.5c0.1,1.1,0.3,2.1,0.4,3.2c0.2,1,0.4,2.1,0.8,3.1c0.5,1.4,1.2,2.7,2.1,4.1c0.9,1.4,2,2.6,3.2,3.7
			c1.2,1.1,2.6,1.9,4,2.4c1.4,0.5,3,0.6,4.5,0.3c1.9-0.4,3.6-1.3,5-2.7c1.5-1.4,2.5-2.9,3.2-4.7c0.2-0.4,0.4-1,0.6-1.7
			c0.2-0.7,0.4-1.5,0.6-2.3c0.2-0.8,0.3-1.6,0.3-2.3c0.1-0.7,0.1-1.3,0-1.8c0.6-0.3,1.3-0.4,2.1-0.2c0.8,0.2,1.5,0.3,2.2,0.3
			c0.2,0.4,0.4,0.8,0.5,1c0.1,0.3,0.2,0.7,0.1,1.1c0.2,0.5,0.2,1.1,0.2,1.7c0,0.6,0,1.2-0.1,1.8c-0.1,0.6-0.2,1.2-0.3,1.8
			c-0.1,0.6-0.3,1.1-0.4,1.6c-0.7,1.9-1.6,3.7-2.7,5.3c-1.2,1.6-2.5,3-4,4.1c-1.5,1.1-3.3,1.9-5.1,2.4c-1.9,0.5-3.9,0.6-6.1,0.2
			c-0.7-0.1-1.4-0.2-2-0.5c-0.6-0.2-1.2-0.5-1.9-0.8c-0.3-0.1-0.7-0.3-1.3-0.6c-0.5-0.2-1.1-0.5-1.6-0.9c-0.5-0.3-1-0.6-1.4-1
			c-0.4-0.3-0.7-0.6-0.9-0.9c-0.3-0.2-0.7-0.5-1.1-0.9c-0.4-0.4-0.8-0.7-1.1-1c-1.3-1.4-2.5-3-3.6-4.9c-1.1-1.9-1.9-3.9-2.5-6.1
			c-0.6-2.2-0.9-4.3-0.8-6.5c0-2.2,0.4-4.3,1.2-6.2c0.5-1.3,1.1-2.6,1.7-3.7c0.6-1.1,1.3-2.2,2.1-3.1c0.8-0.9,1.8-1.7,2.8-2.4
			c1.1-0.7,2.3-1.3,3.8-1.8c0.8-0.3,1.6-0.5,2.3-0.7c0.7-0.2,1.5-0.3,2.3-0.3c1.3,0,2.7,0.3,4,0.8c1.3,0.5,2.3,1.3,3,2.4
			c-0.1,0.4-0.2,0.9-0.3,1.4c-0.1,0.5-0.1,1-0.2,1.5c-0.1,0.5-0.1,1-0.2,1.5C53.6,57.7,53.5,58.2,53.3,58.5z"/>
		<path id="XMLID_195_" d="M98.9,65.1c-0.1,0-0.2,0.1-0.4,0.2c-0.1,0.1-0.3,0.1-0.4,0c-0.1,0-0.1,0-0.2,0c-0.1,0-0.2,0-0.3,0
			c-0.6-0.1-1.3-0.5-2.1-1.1c-0.8-0.6-1.6-1.3-2.4-2c-0.8-0.7-1.6-1.4-2.3-2.2c-0.7-0.7-1.4-1.3-1.8-1.8c-0.2-0.2-0.5-0.4-0.8-0.6
			c-0.6,0.3-1.2,0.7-1.9,1c-0.5,0.3-1.1,0.6-1.7,0.8c-0.7,0.3-1.2,0.6-1.7,0.9c-1.2,0.9-2.3,1.5-3.3,2.1c-1.1,0.5-2.1,1.1-3.2,1.6
			c0.2,0.7,0.4,1.6,0.6,2.7c0.3,1.1,0.5,2.3,0.7,3.4c0.2,1.2,0.4,2.3,0.6,3.4c0.2,1.1,0.3,2,0.3,2.7c-0.2,0.1-0.4,0.3-0.7,0.4
			c-0.3,0.2-0.6,0.4-0.9,0.6c-0.3,0.2-0.6,0.4-0.9,0.5c-0.3,0.2-0.6,0.3-0.8,0.3c-0.2-0.1-0.4-0.2-0.6-0.2c-0.1,0-0.2,0-0.3,0
			c-0.1,0-0.2,0-0.2,0c-0.1,0-0.1-0.1-0.2-0.3c-0.1-0.1-0.1-0.2-0.2-0.4c-0.1-0.2-0.2-0.4-0.2-0.6c-0.1-0.2-0.2-0.4-0.2-0.6
			c-0.1-0.2-0.1-0.3-0.2-0.3c-0.2-0.5-0.4-1.1-0.6-1.8c-0.2-0.7-0.4-1.3-0.5-1.9c-0.3-0.8-0.5-1.5-0.7-2.3c-0.2-0.8-0.3-1.6-0.5-2.4
			c-0.3-1.4-0.6-2.8-0.8-4.3c-0.3-1.4-0.5-2.8-0.8-4.3c-0.5-2.7-0.9-5.3-1.3-8c-0.4-2.7-0.7-5.3-0.9-8c-0.1-0.9-0.1-1.8,0.1-2.7
			c0.1-0.5,0.2-1,0.4-1.5c0.2-0.5,0.3-1,0.4-1.5c0.2-0.2,0.4-0.4,0.5-0.7c0.1-0.2,0.2-0.5,0.3-0.7c0.2-0.1,0.4-0.3,0.5-0.4
			c0,0,0,0-0.1,0c0.7-0.4,1.4-0.6,2-0.7c0.6-0.1,1.1-0.1,1.6,0c0.5,0.1,0.9,0.2,1.2,0.4c0.3,0.2,0.6,0.3,0.9,0.4
			c1.2,1.2,2.3,2.3,3.4,3.5c1.1,1.2,2.2,2.4,3.4,3.6c2.2,2.3,4.4,4.5,6.5,6.7c2.2,2.2,4.4,4.4,6.6,6.5c1,1,2,2,3,3c1,1,2,1.9,3,2.9
			c-0.2,0.5-0.4,0.9-0.5,1.4c0,0.1-0.2,0.2-0.3,0.4c-0.2,0.2-0.3,0.4-0.5,0.7c-0.2,0.2-0.4,0.5-0.5,0.7C99,64.9,98.9,65,98.9,65.1z
			 M84.2,53.3c-0.7-0.7-1.2-1.3-1.6-1.8c-0.4-0.4-0.7-0.8-1.1-1.2c-0.3-0.4-0.7-0.7-1.1-1.2c-0.4-0.4-1-1-1.7-1.7c-1-1-2-1.9-3-2.9
			c-0.4-0.4-0.8-0.8-1.3-1.4c-0.5-0.5-1-1-1.4-1.4c0.1,1.5,0.2,2.9,0.4,4.2c0.2,1.3,0.3,2.6,0.5,3.9c0.2,1.3,0.4,2.6,0.7,3.9
			c0.3,1.3,0.5,2.7,0.9,4.1c0.3-0.1,0.5-0.1,0.6-0.2c0.4-0.1,0.9-0.4,1.7-0.7c0.8-0.3,1.6-0.7,2.4-1.1c0.8-0.4,1.7-0.8,2.4-1.2
			c0.8-0.4,1.3-0.8,1.7-1C84.3,53.6,84.3,53.4,84.2,53.3z"/>
		<path id="XMLID_193_" d="M99.5,23.9c0.3,0.3,0.6,0.7,0.9,1.1c0.3,0.4,0.6,0.8,0.9,1.1c1.3,1.4,2.5,2.7,3.5,3.8
			c1,1.1,2.2,2.4,3.6,3.8c1.3,1.4,2.5,2.7,3.8,4c1.2,1.3,2.5,2.7,3.8,4c0.1,0.1,0.3,0.2,0.4,0.5c0.2,0.2,0.4,0.5,0.6,0.7
			c0.2,0.3,0.5,0.6,0.8,0.9c0-0.4-0.1-0.9-0.1-1.3c0-0.3,0-0.6,0-0.9c0-0.3,0-0.5,0-0.6c0-2.4,0.1-4.7,0.1-7c0.1-2.3,0.2-4.7,0.3-7
			c0.1-1.6,0.3-3.1,0.4-4.7c0.1-1.5,0.3-3.1,0.4-4.6c0.1-0.8,0.1-1.6,0.1-2.2c0-0.6,0.1-1.4,0.3-2.2c0.3-0.3,0.7-0.6,1.3-0.8
			c0.6-0.2,1.2-0.3,1.9-0.4c0.7,0,1.3,0,1.9,0.1c0.6,0.1,1,0.3,1.2,0.6c0.3,0,0.4,0.3,0.5,0.6c0,0.1,0.1,0.3,0.1,0.5
			c0,0.2,0.1,0.3,0.2,0.5c0.2,0.8,0.4,1.4,0.5,2c0.1,0.5,0.3,1,0.4,1.5c0.1,0.5,0.3,1,0.4,1.5c0.2,0.5,0.4,1.2,0.7,2
			c0.1,0.2,0.2,0.6,0.4,1c0.2,0.5,0.3,1,0.5,1.5c0.2,0.5,0.3,1,0.5,1.5c0.2,0.5,0.3,0.9,0.4,1.1c0.9,2.5,1.9,5,2.9,7.5
			c1,2.5,2,5,3,7.5c0.3,0.9,0.6,1.6,0.9,2.2c0.2,0.6,0.5,1.4,0.9,2.2c0.3,0.6,0.5,1.2,0.8,1.9c0.3,0.6,0.6,1.3,0.8,2
			c-0.2,0.2-0.4,0.3-0.6,0.5c-0.2,0.1-0.4,0.3-0.7,0.4c-0.7,0.4-1.2,0.6-1.6,0.7c-0.4,0.1-0.9,0.2-1.3,0.3c-1.1-1.4-1.9-2.9-2.6-4.6
			c-0.6-1.7-1.3-3.3-2-4.9c-0.1-0.2-0.4-0.8-0.7-1.8c-0.4-1-0.8-2-1.2-3.1c-0.4-1.1-0.8-2.1-1.2-3.1c-0.4-1-0.7-1.6-0.8-1.8
			c-0.1-0.3-0.2-0.7-0.3-1c-0.1-0.3-0.3-0.6-0.4-0.9c-0.3-0.6-0.6-1.5-1-2.7c-0.4-1.1-0.8-2.2-1.2-3.1c-0.1,0.4-0.1,0.8,0,1.1
			c0,0.3,0.1,0.6,0.1,0.9c0,0.3,0.1,0.6,0.1,0.8c0,0.2,0,0.4,0,0.5c0,2.9-0.1,5.6-0.3,8.2c-0.2,2.6-0.4,5.4-0.5,8.3
			c0,0.1,0,0.5,0,1.2c0,0.6,0,1.3-0.1,2.1c0,0.7-0.1,1.4-0.1,1.9c0,0.6-0.1,0.9-0.1,1.1c-0.1,0.1-0.1,0.1-0.3,0.2
			c-0.1,0-0.2,0.1-0.4,0.3c-0.2,0.1-0.4,0.2-0.6,0.3c-0.2,0.1-0.4,0.2-0.7,0.4c-0.4,0.2-0.8,0.5-1.2,0.7c-0.3,0.2-0.5,0.3-0.6,0.2
			c-0.3-0.2-0.7-0.5-1.1-0.9c-0.4-0.4-0.9-0.9-1.4-1.3c-0.5-0.5-1-1-1.4-1.4c-0.4-0.4-0.7-0.8-1-1c-0.5-0.4-1.2-1.2-2.2-2.3
			c-1-1.1-2-2.3-3.2-3.6c-1.1-1.3-2.3-2.6-3.5-4c-1.2-1.4-2.4-2.7-3.6-3.9c0.4,1.2,0.9,2.5,1.4,3.8c0.5,1.3,0.9,2.6,1.3,3.7
			c0.4,1.2,0.8,2.2,1.1,3.1c0.3,0.9,0.6,1.5,0.7,1.8c0.5,1.2,0.9,2.5,1.4,3.7c0.4,1.3,0.9,2.5,1.3,3.8c0.2,0.5,0.4,1,0.6,1.5
			c0.2,0.5,0.4,1,0.7,1.5c0.1,0.3,0.2,0.6,0.3,0.8c0.1,0.3,0.2,0.5,0.3,0.8c0.1,0.2,0.1,0.5,0.2,0.7c0.1,0.2,0.1,0.4,0.2,0.6
			c-0.2,0.1-0.4,0.1-0.7,0.2c-0.3,0.1-0.6,0.2-0.9,0.3c-0.3,0.1-0.6,0.2-0.9,0.3c-0.1,0-0.3,0.1-0.4,0.1c-0.5,0.2-0.8,0.4-1.1,0.5
			c-0.3,0.2-0.7,0.2-1.3,0.3c-1.1-2.1-2-4.3-2.8-6.4c-0.8-2.2-1.7-4.4-2.6-6.6c-0.4-0.9-0.8-2.1-1.4-3.5c-0.5-1.4-1.1-2.8-1.6-4.4
			c-0.6-1.6-1.1-3.1-1.7-4.7c-0.6-1.6-1.1-3.1-1.5-4.6c-0.5-1.4-0.9-2.7-1.2-3.9c-0.3-1.2-0.5-2.1-0.6-2.7c0.2-0.3,0.5-0.6,1-0.9
			c0.5-0.3,1-0.5,1.6-0.7c0.6-0.2,1.1-0.4,1.5-0.5c0.5-0.1,0.8-0.2,1-0.2c0.3,0.1,0.6,0.3,0.9,0.5C99,23.2,99.3,23.5,99.5,23.9z"/>
		<path id="XMLID_191_" d="M155.1,3.8c0.2,0,0.4-0.1,0.8-0.1c0.4,0,0.7,0,1.1,0c0.4,0,0.7,0,1.1,0.1c0.4,0,0.6,0.1,0.9,0.1
			c0.1,0.4,0.2,0.7,0.3,1.1c0.1,0.3,0.2,0.7,0.2,1c0,0.2,0,0.5,0.1,0.7c0.1,0.2,0.1,0.4,0.2,0.6c0.1,0.2,0.1,0.4,0,0.6
			c0,0.2-0.2,0.5-0.4,0.7c-0.1,0.1-0.3,0.1-0.7,0.2c-0.4,0.1-0.8,0.1-1.2,0.2c-0.4,0.1-0.8,0.2-1.2,0.3c-0.4,0.1-0.6,0.2-0.6,0.3
			c-0.9,0.3-1.9,0.6-2.8,0.9c-0.9,0.3-1.9,0.6-2.8,0.9c-1.2,0.4-2.4,0.7-3.6,1c-1.2,0.3-2.4,0.7-3.5,1.2c0,0.5,0,1.2,0.2,2.1
			c0.2,0.9,0.3,1.9,0.5,2.9c0.2,1,0.4,2,0.7,3c0.2,1,0.4,1.7,0.5,2.2c0.3,0.2,0.8,0.2,1.4,0.1c0.7-0.1,1.5-0.3,2.3-0.6
			c0.9-0.3,1.8-0.6,2.8-0.9c1-0.3,2-0.6,2.9-0.9c0.9-0.3,1.8-0.4,2.5-0.5c0.7-0.1,1.3-0.1,1.6,0.1c0.2,0.2,0.4,0.4,0.5,0.8
			c0.2,0.4,0.3,0.8,0.4,1.2c0.1,0.4,0.2,0.8,0.2,1.2c0,0.4,0,0.7-0.1,0.9c-0.4,0.2-1.2,0.4-2.4,0.7c-1.2,0.3-2.4,0.6-3.7,0.9
			c-1.3,0.3-2.4,0.7-3.5,1c-1,0.4-1.6,0.7-1.8,1c-0.8,0.3-1.7,0.5-2.5,0.8c0.2,0.6,0.4,1.3,0.7,2.3c0.3,1,0.6,2,0.9,3.1
			c0.3,1.1,0.6,2.1,0.8,3.1c0.3,1,0.5,1.8,0.7,2.3c0.7-0.2,1.7-0.6,3.1-1.2c1.4-0.6,2.8-1.1,4.3-1.6c1.5-0.5,2.9-0.8,4.3-1
			c1.3-0.2,2.3-0.1,2.9,0.3c0.1,0.3,0.2,0.5,0.3,0.7c0.1,0.1,0.3,0.4,0.4,0.8c0.2,0.5,0.3,0.9,0.3,1.2c0.1,0.3,0,0.7-0.3,1.3
			c-0.3,0.2-0.8,0.5-1.6,0.8c-0.8,0.3-1.7,0.7-2.8,1c-1,0.4-2.2,0.8-3.4,1.2c-1.2,0.4-2.3,0.8-3.5,1.2c-1.1,0.4-2.1,0.7-3,1
			c-0.9,0.3-1.5,0.5-2,0.6c-0.4,0.1-0.9,0.2-1.3,0.1c-0.4,0-0.9-0.2-1.3-0.4c-0.1-0.4-0.3-0.8-0.5-1c-0.2-0.3-0.4-0.6-0.5-1
			c-0.2-0.4-0.3-0.8-0.5-1.3c-0.1-0.4-0.3-0.9-0.5-1.3c-0.5-0.8-0.9-1.9-1.3-3.3c-0.4-1.3-0.8-2.7-1.1-4.2c-0.3-1.5-0.7-2.9-1-4.4
			c-0.3-1.4-0.6-2.7-0.9-3.7c-0.1-0.3-0.2-0.8-0.4-1.6c-0.2-0.8-0.4-1.8-0.6-2.9c-0.2-1.1-0.5-2.3-0.8-3.5c-0.3-1.2-0.6-2.4-0.8-3.5
			c-0.3-1.1-0.5-2-0.7-2.8c-0.2-0.8-0.4-1.3-0.5-1.5c3.2-1.5,6.5-2.8,9.6-3.8C148.2,5.4,151.6,4.6,155.1,3.8z"/>
		<path id="XMLID_189_" d="M205.7,4.9c-0.3,0.1-0.8,0.2-1.5,0.3c-0.7,0.1-1.5,0.2-2.5,0.3c-1,0.1-2,0.2-3.2,0.3
			c-1.2,0.1-2.4,0.3-3.7,0.4c0,1.3,0.1,2.7,0.2,4.2c0.1,1.5,0.1,3.1,0.2,4.7c0.1,1.6,0.1,3.1,0.2,4.7c0.1,1.5,0.2,2.9,0.2,4.1
			c0.1,1.5,0.2,3,0.4,4.5c0.1,1.5,0.3,3,0.4,4.5c0,0.5,0.1,1,0.2,1.5c0.1,0.5,0.1,1,0.1,1.5c0,0.5,0,1,0.1,1.5c0.1,0.5,0.1,1,0,1.5
			c-0.1,0-0.2,0.1-0.5,0.2c-0.3,0.1-0.5,0.2-0.8,0.3c-0.3,0.1-0.6,0.2-0.8,0.3c-0.3,0.1-0.4,0.1-0.5,0.2c-0.5,0.3-1,0.3-1.6,0.1
			c-0.5-0.2-0.9-0.4-1-0.6c-0.3-0.6-0.6-1.7-0.9-3.3c-0.3-1.6-0.5-3.4-0.7-5.4c-0.2-2.1-0.4-4.3-0.5-6.6c-0.2-2.4-0.3-4.6-0.4-6.8
			c-0.1-2.2-0.2-4.2-0.2-6c0-1.8-0.1-3.3-0.1-4.3c-2.2,0.3-4.1,0.5-5.9,0.7c-1.8,0.2-3,0.4-3.6,0.5c-0.7-0.4-1.1-1-1.3-1.8
			c-0.2-0.8-0.3-1.7-0.4-2.9c0.2-0.3,0.8-0.7,1.9-0.9c1.1-0.3,2.3-0.5,3.6-0.7c1.3-0.2,2.6-0.4,3.8-0.5c1.2-0.1,2.1-0.2,2.6-0.3
			c1-0.1,2.1-0.3,3.5-0.4c1.4-0.2,2.8-0.3,4.3-0.4c1.5-0.1,2.9-0.2,4.3-0.2c1.4,0,2.6,0,3.5,0c0.3,0.2,0.4,0.6,0.6,1.1
			c0.1,0.5,0.2,1.1,0.2,1.7c0,0.6,0,1.1,0,1.6C205.9,4.6,205.8,4.9,205.7,4.9z"/>
		<path id="XMLID_186_" d="M231.3-1.7c0.3,0,0.7,0,1.3,0.1c0.5,0.1,1.1,0.2,1.7,0.4c0.6,0.2,1.1,0.4,1.6,0.6
			c0.5,0.2,0.9,0.4,1.1,0.6c1.5,1.1,2.7,2.4,3.7,3.9c1,1.4,1.8,3,2.3,4.7c0.2,0.7,0.4,1.5,0.6,2.4c0.1,0.9,0.3,1.8,0.3,2.8
			c0.1,0.9,0.1,1.9,0.1,2.8c0,0.9-0.1,1.7-0.1,2.5c-0.3,2.5-0.9,5.1-1.9,7.6c-1,2.6-2.3,4.9-3.9,6.9c-1.6,2-3.5,3.7-5.6,4.9
			c-2.1,1.2-4.5,1.7-7.2,1.6c-1.5-0.1-2.9-0.3-4.3-0.8c-1.4-0.4-2.7-1.1-4-2c-0.6-0.4-1.1-0.8-1.6-1.2c-0.5-0.4-0.9-0.9-1.3-1.3
			c-0.4-0.5-0.7-1-1.1-1.5c-0.3-0.5-0.7-1.1-1.1-1.8c0,0,0-0.1-0.1-0.1c-0.4-0.7-0.8-1.5-1.1-2.5c-0.3-1-0.5-2-0.7-3
			c-0.2-1.1-0.3-2.1-0.4-3.1c-0.1-1-0.2-1.9-0.2-2.8c-0.1-1.7,0.1-3.5,0.4-5.4c0.3-1.9,0.9-3.7,1.7-5.5c0.8-1.8,1.8-3.4,3-4.9
			c1.2-1.5,2.6-2.7,4.3-3.6c0.6-0.3,1.4-0.7,2.5-1.1c1-0.4,2.1-0.7,3.3-1c1.2-0.3,2.4-0.4,3.6-0.5C229.2-2,230.3-1.9,231.3-1.7z
			 M227.8,3.3c-2,0-3.8,0.4-5.3,1.3c-1.5,0.9-2.7,2.1-3.7,3.5c-1,1.5-1.8,3.1-2.3,5c-0.6,1.9-0.9,3.7-1,5.6
			c-0.2,1.9-0.1,3.7,0.1,5.5c0.2,1.8,0.8,3.5,1.6,5.2c0.8,1.6,2,2.8,3.6,3.5c1.6,0.7,3.2,1,4.8,0.8c1.9-0.1,3.4-0.6,4.7-1.4
			c1.2-0.8,2.4-2.1,3.5-3.7c0.8-1.3,1.5-2.7,2.1-4.4c0.6-1.7,1-3.5,1.2-5.3c0.2-1.8,0.3-3.7,0.1-5.5c-0.2-1.8-0.6-3.4-1.4-4.9
			c-0.7-1.5-1.8-2.6-3.1-3.6C231.4,3.9,229.8,3.4,227.8,3.3z"/>
		<path id="XMLID_183_" d="M262.5,43.6c0.1-1.1,0.4-2.5,0.6-4.2c0.3-1.7,0.6-3.4,1-5.3c0.4-1.9,0.7-3.7,1-5.6c0.3-1.9,0.7-3.6,1-5.1
			c0.6-3.3,1.2-6.5,1.8-9.8c0,0.2,0,0,0-0.4c0.1-0.4,0.1-1,0.3-1.7c0.1-0.7,0.3-1.5,0.5-2.4c0.2-0.9,0.4-1.7,0.6-2.5
			c0.2-0.8,0.5-1.4,0.8-1.9c0.3-0.5,0.6-0.8,0.9-0.9c0.4-0.1,0.8-0.2,1-0.2c0.2,0,0.6,0.1,1.1,0.2c0.6,0.1,1.2,0.2,1.9,0.2
			c0.7,0,1.3,0.1,1.9,0.2c0.6,0.1,1.1,0.2,1.7,0.3c0.6,0.1,1.2,0.2,1.7,0.4c0.9,0.3,1.9,0.5,2.8,0.9c1,0.3,1.9,0.6,2.7,0.9
			c1.4,0.5,2.5,1.3,3.5,2.3c1,1,1.8,2.1,2.5,3.2c0.7,1.2,1.2,2.5,1.5,3.8c0.3,1.3,0.4,2.6,0.2,4c0,0.1-0.1,0.3-0.1,0.4
			c0,0.1,0,0.3,0,0.4c0,0.1,0,0.3-0.1,0.5c-0.1,0.2-0.2,0.5-0.3,0.7c-0.1,0.3-0.2,0.5-0.3,0.8c-0.1,0.3-0.2,0.4-0.2,0.5
			c-0.4,1-1,2-1.8,2.8c-0.8,0.8-1.7,1.6-2.6,2.2c-1,0.6-2,1.2-3.1,1.6c-1.1,0.4-2.1,0.7-3.2,1c-1.3,0.3-2.6,0.4-3.8,0.3
			c-1.2,0-2.3-0.1-3.3-0.3c-1-0.2-1.8-0.3-2.5-0.5c-0.7-0.2-1.2-0.3-1.6-0.3c0,0-0.1,0.3-0.2,0.8c-0.1,0.5-0.2,1.2-0.4,2
			c-0.2,0.8-0.3,1.7-0.5,2.7c-0.2,1-0.3,1.9-0.5,2.8c-0.2,0.9-0.3,1.6-0.4,2.3c-0.1,0.7-0.2,1.1-0.2,1.2c0,0.1,0,0.2-0.1,0.5
			c0,0.3-0.1,0.5-0.2,0.8c-0.1,0.3-0.1,0.5-0.2,0.8c-0.1,0.2-0.1,0.4-0.2,0.4c-0.1,0.3-0.5,0.5-0.9,0.6c-0.5,0.1-1,0-1.6-0.1
			c-0.6-0.1-1.2-0.3-1.7-0.6C263.1,44.1,262.7,43.8,262.5,43.6z M278.6,10.2c-0.6-0.1-1.1-0.2-1.7-0.2c-0.6,0-1.2,0-1.8,0
			c-0.4,0.6-0.6,1.2-0.8,1.8c-0.2,0.7-0.4,1.4-0.5,2.1c-0.1,0.7-0.3,1.4-0.4,2.2c-0.1,0.7-0.3,1.4-0.4,2.1c-0.3,1.3-0.5,2.5-0.8,3.8
			c0,0.1-0.1,0.3-0.1,0.5c-0.1,0.2-0.1,0.5-0.2,0.8c-0.1,0.3-0.1,0.6-0.2,0.9c-0.1,0.3-0.1,0.6-0.1,0.8c1.4,0.5,2.7,0.8,3.9,1
			c1.2,0.1,2.3,0.1,3.3,0c1-0.1,2-0.4,2.9-0.7c0.9-0.3,1.8-0.7,2.6-1.1c1.5-0.7,2.5-1.7,3.1-3.1c0.6-1.3,0.8-2.6,0.6-4
			c-0.2-1.3-0.8-2.6-1.9-3.8c-1-1.2-2.5-2-4.2-2.4c-0.5-0.1-1-0.3-1.5-0.4C279.8,10.4,279.3,10.3,278.6,10.2
			C278.7,10.2,278.7,10.2,278.6,10.2z"/>
		<path id="XMLID_180_" d="M312.7,59.4c-0.1,0-0.2-0.1-0.4-0.2c-0.1-0.1-0.2-0.1-0.3-0.2c-0.1,0-0.1-0.1-0.2-0.2
			c0-0.1-0.1-0.2-0.1-0.2c-0.3-0.5-0.5-1.3-0.5-2.3c-0.1-1-0.1-2-0.1-3.1c0-1.1,0.1-2.1,0.1-3.2c0.1-1,0.1-1.9,0.1-2.5
			c0-0.3,0-0.6-0.1-1c-0.7-0.2-1.3-0.5-2-0.7c-0.5-0.2-1.1-0.4-1.8-0.8c-0.6-0.3-1.2-0.6-1.8-0.7c-1.4-0.3-2.7-0.7-3.8-1.2
			c-1.1-0.5-2.2-0.9-3.3-1.4c-0.4,0.6-1,1.3-1.7,2.3c-0.7,0.9-1.4,1.8-2.1,2.8c-0.7,0.9-1.5,1.8-2.2,2.7c-0.7,0.8-1.3,1.5-1.8,1.9
			c-0.2-0.1-0.5-0.2-0.8-0.3c-0.3-0.1-0.7-0.2-1-0.3c-0.3-0.1-0.7-0.2-1-0.3c-0.3-0.1-0.6-0.2-0.8-0.4c-0.1-0.3-0.1-0.4-0.2-0.5
			c-0.1-0.1-0.2-0.2-0.2-0.2c-0.1-0.1-0.1-0.1-0.1-0.2c0-0.1,0-0.2,0.1-0.4c0-0.1,0.1-0.3,0.2-0.4c0.1-0.2,0.2-0.4,0.3-0.6
			c0.1-0.2,0.2-0.4,0.3-0.6c0.1-0.2,0.1-0.3,0.1-0.4c0.3-0.5,0.6-1.1,1-1.7c0.4-0.6,0.7-1.1,1.1-1.6c0.4-0.7,0.8-1.4,1.3-2
			c0.5-0.7,1-1.3,1.5-2c0.9-1.1,1.8-2.3,2.7-3.4c0.9-1.1,1.8-2.3,2.7-3.4c1.7-2.1,3.5-4.2,5.2-6.2c1.8-2,3.6-4,5.5-5.9
			c0.7-0.7,1.3-1.2,2.1-1.7c0.4-0.3,0.9-0.5,1.4-0.7c0.5-0.2,1-0.4,1.4-0.6c0.3,0,0.6,0,0.8,0c0.3,0,0.5-0.1,0.8-0.2
			c0.2,0,0.5,0.1,0.7,0.1c0,0,0,0-0.1,0c0.8,0.3,1.4,0.6,1.8,1c0.5,0.4,0.8,0.8,1,1.2c0.2,0.4,0.4,0.8,0.5,1.2
			c0.1,0.4,0.2,0.7,0.3,0.9c-0.1,1.7-0.2,3.3-0.4,4.9c-0.2,1.6-0.3,3.3-0.5,5c-0.3,3.1-0.5,6.3-0.7,9.3c-0.2,3.1-0.4,6.2-0.6,9.3
			c-0.1,1.4-0.2,2.9-0.2,4.3c-0.1,1.4-0.2,2.8-0.2,4.2c-0.5,0.2-0.9,0.3-1.4,0.5c-0.1,0-0.3,0-0.5,0c-0.3,0-0.6,0-0.9,0
			c-0.3,0-0.6,0-0.9,0.1C312.9,59.4,312.7,59.4,312.7,59.4z M311.9,40.5c0.1-1,0.2-1.8,0.3-2.3c0.1-0.6,0.1-1.1,0.2-1.6
			c0.1-0.5,0.1-1,0.2-1.6c0.1-0.6,0.1-1.4,0.2-2.4c0.1-1.4,0.2-2.8,0.2-4.1c0-0.5,0.1-1.2,0.1-1.9c0.1-0.7,0.1-1.4,0.1-2
			c-1.1,1-2,2-2.9,3c-0.9,1-1.8,2-2.6,3c-0.8,1-1.7,2-2.5,3.1c-0.8,1-1.7,2.2-2.5,3.3c0.3,0.2,0.4,0.3,0.5,0.4
			c0.3,0.2,0.9,0.5,1.6,0.8c0.8,0.4,1.6,0.7,2.4,1.1c0.9,0.4,1.7,0.7,2.5,1c0.8,0.3,1.5,0.5,1.9,0.6
			C311.8,40.8,311.8,40.6,311.9,40.5z"/>
		<path id="XMLID_177_" d="M340.1,73c-0.2-0.8-0.3-1.6-0.5-2.2c-0.2-0.7-0.3-1.3-0.4-2c-0.1-0.7-0.3-1.4-0.4-2.1
			c-0.1-0.7-0.3-1.5-0.5-2.4c-0.2-0.9-0.4-1.9-0.6-3c-0.2-1.1-0.4-2.2-0.6-3.3c-0.2-1.1-0.4-2.1-0.6-3c-0.2-0.9-0.5-1.6-0.7-2.1
			c-0.8-0.3-1.4-0.6-1.9-0.9c-0.5-0.3-0.9-0.5-1.2-0.6c0,0-0.2,0.2-0.4,0.8c-0.3,0.5-0.6,1.2-0.9,2c-0.4,0.8-0.8,1.7-1.2,2.7
			c-0.4,1-0.9,1.9-1.3,2.8c-0.4,0.9-0.7,1.7-1,2.3c-0.3,0.6-0.5,1-0.5,1.2c0,0.1-0.1,0.2-0.2,0.5c-0.1,0.3-0.2,0.5-0.3,0.8
			c-0.1,0.3-0.3,0.5-0.4,0.7c-0.1,0.2-0.2,0.3-0.3,0.4c-0.2,0.3-0.6,0.4-1.1,0.3c-0.5-0.1-1-0.2-1.6-0.5c-0.6-0.3-1.1-0.6-1.5-1
			c-0.5-0.4-0.8-0.8-0.9-1.1c0.4-1.1,0.9-2.3,1.5-3.8c0.6-1.5,1.3-3,2-4.6c0.7-1.6,1.5-3.2,2.2-4.8c0.7-1.6,1.4-3.2,2.1-4.6
			c1.4-3,2.7-6,4.1-9.1c-0.1,0.1,0,0,0.1-0.4c0.1-0.4,0.3-0.9,0.6-1.6c0.3-0.7,0.6-1.4,1-2.2c0.4-0.8,0.8-1.6,1.2-2.2
			c0.4-0.7,0.8-1.3,1.2-1.7c0.4-0.4,0.8-0.6,1.1-0.6c0.5,0,0.8,0,1,0.1c0.2,0.1,0.6,0.2,1,0.4c0.5,0.3,1.1,0.5,1.8,0.6
			c0.7,0.2,1.3,0.4,1.8,0.7c0.5,0.3,1.1,0.5,1.7,0.7c0.6,0.2,1.1,0.5,1.6,0.8c0.8,0.5,1.7,1,2.6,1.5c0.9,0.5,1.7,1.1,2.4,1.6
			c1.2,0.8,2.2,1.9,3,3.1c0.7,1.2,1.3,2.5,1.7,3.8c0.4,1.3,0.6,2.7,0.6,4.1c0,1.4-0.2,2.7-0.7,4c0,0.2-0.1,0.3-0.1,0.4
			c0,0.1-0.1,0.2-0.1,0.4c0,0.1-0.1,0.3-0.2,0.5c-0.1,0.2-0.3,0.4-0.4,0.6c-0.2,0.2-0.3,0.4-0.5,0.7c-0.2,0.2-0.3,0.4-0.3,0.5
			c-0.7,0.9-1.4,1.6-2.4,2.1c-0.9,0.5-1.9,0.8-2.9,0.9c-1,0.1-2.1,0.2-3.3,0.1c-1.2-0.1-2.3-0.2-3.5-0.3c0.2,0.4,0.3,1.1,0.5,2
			c0.1,0.9,0.3,1.8,0.4,2.8c0.1,1,0.2,1.9,0.4,2.9c0.1,1,0.2,1.7,0.3,2.2c0.1,0.2,0.1,0.4,0.1,0.4c0.2,0.9,0.3,1.8,0.5,2.8
			c0.2,0.9,0.3,1.9,0.4,2.7c0.1,0.9,0.2,1.7,0.3,2.4c0,0.7,0.1,1.3,0.1,1.8c-0.2,0.1-0.5,0.1-0.9,0c-0.4-0.1-0.9-0.3-1.5-0.5
			c-0.6-0.2-1.1-0.4-1.7-0.7C340.9,73.5,340.4,73.2,340.1,73z M344.2,35.7c-0.5-0.3-1.1-0.5-1.6-0.7c-0.6-0.2-1.2-0.3-1.7-0.4
			c-0.5,0.5-0.9,1-1.3,1.6c-0.4,0.6-0.7,1.2-1,1.9c-0.3,0.7-0.6,1.3-0.9,2c-0.3,0.7-0.6,1.3-0.9,1.9c-0.2,0.4-0.3,0.6-0.3,0.7
			c0,0.1,0,0.1,0,0.1c0,0,0,0.1,0,0.1c0,0.1-0.1,0.3-0.3,0.7c-0.1,0.2-0.3,0.6-0.6,1.2c-0.3,0.6-0.6,1.2-0.7,1.6
			c2.6,1.7,5,2.8,7.3,3.4c2.3,0.6,4.3,0.6,6.1,0.1c1.3-0.4,2.3-1.2,2.9-2.2c0.6-1.1,0.9-2.3,0.7-3.6c-0.1-1.3-0.6-2.6-1.5-3.9
			c-0.9-1.3-2.2-2.4-3.8-3.3c-0.5-0.3-0.9-0.5-1.1-0.6C345.2,36.1,344.8,35.9,344.2,35.7C344.2,35.7,344.2,35.7,344.2,35.7z"/>
		<path id="XMLID_175_" d="M387.2,63.3c-0.3-0.1-0.7-0.4-1.4-0.7c-0.6-0.4-1.4-0.8-2.2-1.4c-0.9-0.6-1.8-1.2-2.9-1.8
			c-1.1-0.7-2.2-1.4-3.3-2.1c-0.7,1-1.6,2.2-2.5,3.4c-0.9,1.2-1.8,2.5-2.7,3.8c-0.9,1.3-1.8,2.6-2.7,3.8c-0.9,1.3-1.6,2.4-2.3,3.4
			c-0.8,1.3-1.7,2.5-2.5,3.8c-0.8,1.3-1.6,2.5-2.4,3.8c-0.3,0.4-0.5,0.9-0.8,1.3c-0.2,0.5-0.5,0.9-0.8,1.3c-0.3,0.4-0.6,0.8-0.9,1.3
			c-0.2,0.5-0.6,0.8-0.9,1.1c-0.1,0-0.3-0.1-0.6-0.1c-0.3-0.1-0.6-0.2-0.9-0.3c-0.3-0.1-0.6-0.2-0.9-0.3c-0.3-0.1-0.4-0.2-0.5-0.2
			c-0.6-0.1-1-0.4-1.4-1c-0.3-0.5-0.5-0.9-0.4-1.1c0.1-0.7,0.5-1.8,1.3-3.2c0.7-1.4,1.6-3,2.7-4.7c1.1-1.8,2.3-3.6,3.6-5.6
			c1.3-2,2.6-3.8,3.9-5.6c1.3-1.8,2.4-3.4,3.5-4.9c1.1-1.5,2-2.6,2.6-3.5c-2-1.2-3.8-2.3-5.3-3.2c-1.6-1-2.7-1.6-3.3-1.9
			c-0.3-0.8-0.3-1.5,0.1-2.2c0.3-0.7,0.8-1.6,1.5-2.5c0.4-0.1,1.1,0,2.2,0.5c1.1,0.5,2.2,1,3.4,1.7c1.2,0.7,2.4,1.4,3.5,2.1
			c1.1,0.7,1.9,1.2,2.3,1.4c0.9,0.5,1.9,1.2,3.2,2c1.3,0.8,2.6,1.6,3.9,2.5c1.3,0.9,2.6,1.8,3.8,2.6c1.2,0.9,2.2,1.7,2.9,2.3
			c0.1,0.3,0,0.7-0.2,1.2c-0.2,0.5-0.5,1-0.8,1.5c-0.3,0.5-0.6,0.9-1,1.3C387.5,63.2,387.2,63.4,387.2,63.3z"/>
		<path id="XMLID_173_" d="M378.1,97.4c1.6-2.1,3.2-4,4.8-5.8c1.6-1.8,2.9-3.7,4-5.6c0.1-1,0.2-2,0.2-3c0.1-0.6,0.2-1.5,0.3-2.6
			c0.1-1.2,0.2-2.5,0.4-3.9c0.1-1.4,0.3-2.9,0.5-4.5c0.2-1.6,0.4-3.1,0.6-4.5c0.2-1.4,0.4-2.6,0.7-3.7c0.2-1.1,0.5-1.8,0.8-2.3
			c0.7,0.3,1.2,0.4,1.6,0.4c0.4,0,1,0.2,1.7,0.5c0.4,0.2,0.8,0.3,1.2,0.5c0.3,0.2,0.6,0.3,0.9,0.4c0.3,0.1,0.4,0.2,0.4,0.3
			c-0.1,0.5-0.2,1-0.3,1.5c-0.1,0.5-0.2,1.1-0.3,1.7c-0.4,2.8-0.9,5.5-1.3,8.2c-0.4,2.7-0.7,5.5-0.8,8.3c0.1,0.1,0.2,0.1,0.2,0.2
			c0.7-0.1,1.4-0.3,2-0.6c0.6-0.3,1.3-0.5,1.9-0.7c0.8-0.3,2.1-0.7,3.9-1.3c1.8-0.6,3.6-1.1,5.5-1.6c1.9-0.5,3.8-1,5.6-1.3
			c1.8-0.4,3.1-0.5,4-0.5c0.4,0.5,0.8,1,1.1,1.4c0.3,0.4,0.5,0.8,0.7,1.3c0.2,0.4,0.3,0.9,0.3,1.5c0,0.5,0,1.2,0,2
			c-1.2,0.4-2.5,0.7-3.9,0.8c-1.4,0.2-2.7,0.4-3.9,0.6c-0.6,0.1-1.3,0.3-2.2,0.5c-0.9,0.2-1.8,0.5-2.8,0.7c-1,0.3-2.1,0.6-3.1,0.9
			c-1.1,0.3-2.1,0.6-3.1,1c-2.4,0.7-4.9,1.6-7.5,2.5c-0.3,0.2-0.6,0.5-1.1,1.1c-0.5,0.5-0.8,0.9-1,1.1c-1,1.3-2.1,2.6-3.1,4
			c-0.4,0.4-0.8,0.9-1.2,1.5c-0.4,0.6-0.9,1.2-1.4,1.7c-0.5,0.6-0.9,1.1-1.3,1.5c-0.4,0.4-0.7,0.7-0.9,0.8c-0.3,0-0.7-0.1-1.3-0.4
			c-0.6-0.3-1.1-0.7-1.7-1.1c-0.6-0.4-1-0.8-1.5-1.2c-0.4-0.4-0.6-0.7-0.5-0.9C377.4,98.3,377.7,97.8,378.1,97.4z"/>
	</g>
</g>
</svg>
